<?xml version="1.0" encoding="utf-8"?>
<svg viewBox="0 0 2200 1700" xmlns="http://www.w3.org/2000/svg" xmlns:bx="https://boxy-svg.com">
  <defs>
    <linearGradient id="backdrop" gradientUnits="userSpaceOnUse" bx:pinned="true">
      <stop style="stop-color: rgb(22, 21, 94)"/>
    </linearGradient>
    <linearGradient id="groupbg" gradientUnits="userSpaceOnUse" bx:pinned="true">
      <stop style="stop-color: rgb(216, 216, 216)"/>
    </linearGradient>
  </defs>
  <rect width="2200" height="1700" style="stroke: rgb(0, 0, 0); fill: url('#backdrop'); pointer-events: none;">
    <title>backdrop</title>
  </rect>
  <text style="fill: rgb(255, 255, 255); font-family: Arial, sans-serif; font-size: 42px; font-weight: 700; white-space: pre; pointer-events: none;" transform="matrix(1, 0, 0, 1, -56.752972, 12.543008)"><title>title</title><tspan x="133.159" y="90.865">Awesome Security Solutions for AI Systems, The Infographic</tspan><tspan x="133.159" dy="1em">​</tspan></text>
  <a style="pointer-events: none;cursor:pointer;" href="https://github.com/zmre/awesome-security-for-ai/">
    <text style="fill: rgb(182, 189, 216); font-family: Arial, sans-serif; font-size: 24px; white-space: pre;" transform="matrix(1, 0, 0, 1, -68.826088, -185.396393)" y="311.5539855957031"><title>subtitle</title><tspan x="143.03199768066406" dy="1em">​</tspan><tspan>Open source, creative commons, based on the awesome list on Github at </tspan><tspan style="fill: rgb(95, 238, 250); text-decoration: underline solid rgba(255, 255, 255, 0.8);">zmre/awesome-security-for-ai</tspan></text>
  </a>
  <g>
    <title>awesome-logo</title>
    <path d="M 2133.309 86.85 L 2106.398 62.164 L 2102.613 66.29 L 2125.038 86.85 L 2036.646 86.85 L 2059.071 66.272 L 2055.286 62.146 L 2028.374 86.85 L 2028.357 86.85 L 2028.357 103.122 C 2028.357 110.478 2035.444 116.47 2044.144 116.47 L 2060.739 116.47 C 2069.441 116.47 2076.528 110.478 2076.528 103.122 L 2076.528 92.43 L 2085.139 92.43 L 2085.139 103.122 C 2085.139 110.478 2092.225 116.47 2100.927 116.47 L 2117.522 116.47 C 2126.222 116.47 2133.309 110.478 2133.309 103.122 L 2133.309 86.85 Z" style="fill: rgb(255, 255, 255);">
      <title>awesome-glasses</title>
    </path>
    <path d="M 2034.23 137.85 C 2035.012 137.85 2035.657 138.123 2036.205 138.671 C 2036.752 139.218 2037.025 139.882 2037.025 140.645 L 2037.025 150.339 L 2027.116 150.339 C 2026.334 150.339 2025.689 150.066 2025.142 149.519 C 2024.594 148.971 2024.321 148.307 2024.321 147.544 L 2024.321 142.932 L 2034.7 142.932 L 2034.7 140.645 C 2034.7 140.508 2034.66 140.41 2034.563 140.312 C 2034.465 140.215 2034.367 140.176 2034.23 140.176 L 2024.321 140.176 L 2024.321 137.85 L 2034.23 137.85 Z M 2034.7 148.014 L 2034.7 145.258 L 2026.647 145.258 L 2026.647 147.544 C 2026.647 147.681 2026.686 147.779 2026.783 147.877 C 2026.881 147.974 2026.979 148.014 2027.116 148.014 L 2034.7 148.014 Z M 2057.119 137.85 L 2059.601 137.85 L 2054.91 150.339 L 2053.014 150.339 L 2048.812 141.055 L 2044.844 150.339 L 2044.805 150.32 L 2044.824 150.339 L 2042.948 150.339 L 2038.042 137.85 L 2040.505 137.85 L 2043.886 146.137 L 2047.482 137.85 L 2050.141 137.85 L 2053.952 146.137 L 2057.119 137.85 Z M 2070.253 137.85 C 2071.035 137.85 2071.68 138.123 2072.227 138.671 C 2072.775 139.218 2073.048 139.882 2073.048 140.645 L 2073.048 145.258 L 2062.67 145.258 L 2062.67 147.544 C 2062.67 147.681 2062.709 147.779 2062.806 147.877 C 2062.904 147.974 2063.002 148.014 2063.139 148.014 L 2073.048 148.014 L 2073.048 150.339 L 2063.139 150.339 C 2062.357 150.339 2061.712 150.066 2061.164 149.519 C 2060.617 148.971 2060.344 148.307 2060.344 147.544 L 2060.344 140.645 C 2060.344 139.863 2060.617 139.218 2061.164 138.671 C 2061.712 138.123 2062.376 137.85 2063.139 137.85 L 2070.253 137.85 Z M 2062.67 142.932 L 2070.722 142.932 L 2070.722 140.645 C 2070.722 140.508 2070.683 140.41 2070.586 140.312 C 2070.488 140.215 2070.39 140.176 2070.253 140.176 L 2063.139 140.176 C 2063.002 140.176 2062.904 140.215 2062.806 140.312 C 2062.709 140.41 2062.67 140.508 2062.67 140.645 L 2062.67 142.932 Z M 2087.884 140.664 L 2087.884 141.133 L 2085.558 141.133 L 2085.558 140.664 C 2085.558 140.527 2085.519 140.43 2085.421 140.332 C 2085.323 140.234 2085.225 140.195 2085.089 140.195 L 2077.974 140.195 C 2077.837 140.195 2077.739 140.234 2077.642 140.332 C 2077.544 140.43 2077.505 140.527 2077.505 140.664 L 2077.505 142.482 C 2077.505 142.619 2077.544 142.717 2077.642 142.814 C 2077.739 142.912 2077.837 142.951 2077.974 142.951 L 2085.089 142.951 C 2085.87 142.951 2086.515 143.225 2087.063 143.772 C 2087.61 144.319 2087.884 144.984 2087.884 145.746 L 2087.884 147.564 C 2087.884 148.346 2087.61 148.991 2087.063 149.538 C 2086.515 150.085 2085.851 150.359 2085.089 150.359 L 2077.974 150.359 C 2077.192 150.359 2076.547 150.085 2076 149.538 C 2075.452 148.991 2075.179 148.326 2075.179 147.564 L 2075.179 147.095 L 2077.505 147.095 L 2077.505 147.564 C 2077.505 147.701 2077.544 147.799 2077.642 147.896 C 2077.739 147.994 2077.837 148.033 2077.974 148.033 L 2085.089 148.033 C 2085.225 148.033 2085.323 147.994 2085.421 147.896 C 2085.519 147.799 2085.558 147.701 2085.558 147.564 L 2085.558 145.746 C 2085.558 145.609 2085.519 145.512 2085.421 145.414 C 2085.323 145.316 2085.225 145.277 2085.089 145.277 L 2077.974 145.277 C 2077.192 145.277 2076.547 145.003 2076 144.456 C 2075.452 143.909 2075.179 143.244 2075.179 142.482 L 2075.179 140.664 C 2075.179 139.882 2075.452 139.237 2076 138.69 C 2076.547 138.143 2077.212 137.869 2077.974 137.869 L 2085.089 137.869 C 2085.87 137.869 2086.515 138.143 2087.063 138.69 C 2087.61 139.218 2087.884 139.882 2087.884 140.664 Z M 2092.809 137.85 L 2099.924 137.85 C 2100.706 137.85 2101.351 138.123 2101.898 138.671 C 2102.445 139.218 2102.719 139.882 2102.719 140.645 L 2102.719 147.544 C 2102.719 148.326 2102.445 148.971 2101.898 149.519 C 2101.351 150.066 2100.686 150.339 2099.924 150.339 L 2092.809 150.339 C 2092.027 150.339 2091.382 150.066 2090.835 149.519 C 2090.288 148.971 2090.014 148.307 2090.014 147.544 L 2090.014 140.645 C 2090.014 139.863 2090.288 139.218 2090.835 138.671 C 2091.382 138.123 2092.047 137.85 2092.809 137.85 Z M 2099.924 140.176 L 2092.809 140.176 C 2092.672 140.176 2092.575 140.215 2092.477 140.312 C 2092.379 140.41 2092.34 140.508 2092.34 140.645 L 2092.34 147.544 C 2092.34 147.681 2092.379 147.779 2092.477 147.877 C 2092.575 147.974 2092.672 148.014 2092.809 148.014 L 2099.924 148.014 C 2100.061 148.014 2100.158 147.974 2100.256 147.877 C 2100.354 147.779 2100.393 147.681 2100.393 147.544 L 2100.393 140.645 C 2100.393 140.508 2100.354 140.41 2100.256 140.312 C 2100.158 140.234 2100.061 140.176 2099.924 140.176 Z M 2120.935 137.85 C 2121.717 137.85 2122.362 138.123 2122.91 138.671 C 2123.457 139.218 2123.731 139.882 2123.731 140.645 L 2123.731 150.339 L 2121.424 150.339 L 2121.424 140.645 C 2121.424 140.508 2121.385 140.41 2121.287 140.312 C 2121.19 140.215 2121.072 140.176 2120.935 140.176 L 2116.01 140.176 C 2115.873 140.176 2115.775 140.215 2115.678 140.312 C 2115.58 140.41 2115.541 140.508 2115.541 140.645 L 2115.541 150.339 L 2113.215 150.339 L 2113.215 140.645 C 2113.215 140.508 2113.176 140.41 2113.078 140.312 C 2112.98 140.215 2112.883 140.176 2112.746 140.176 L 2107.801 140.176 C 2107.664 140.176 2107.566 140.215 2107.468 140.312 C 2107.371 140.41 2107.332 140.508 2107.332 140.645 L 2107.332 150.339 L 2105.006 150.339 L 2105.006 137.85 L 2120.935 137.85 Z M 2135.888 137.85 C 2136.67 137.85 2137.315 138.123 2137.862 138.671 C 2138.409 139.218 2138.683 139.882 2138.683 140.645 L 2138.683 145.258 L 2128.304 145.258 L 2128.304 147.544 C 2128.304 147.681 2128.343 147.779 2128.441 147.877 C 2128.539 147.974 2128.637 148.014 2128.773 148.014 L 2138.683 148.014 L 2138.683 150.339 L 2128.773 150.339 C 2127.991 150.339 2127.346 150.066 2126.799 149.519 C 2126.252 148.971 2125.978 148.307 2125.978 147.544 L 2125.978 140.645 C 2125.978 139.863 2126.252 139.218 2126.799 138.671 C 2127.346 138.123 2128.011 137.85 2128.773 137.85 L 2135.888 137.85 Z M 2128.304 142.932 L 2136.357 142.932 L 2136.357 140.645 C 2136.357 140.508 2136.318 140.41 2136.22 140.312 C 2136.123 140.215 2136.025 140.176 2135.888 140.176 L 2128.773 140.176 C 2128.637 140.176 2128.539 140.215 2128.441 140.312 C 2128.343 140.41 2128.304 140.508 2128.304 140.645 L 2128.304 142.932 Z" style="fill: rgb(255, 255, 255);">
      <title>awesome-word</title>
    </path>
  </g>
  <rect style="stroke: rgb(0, 0, 0); fill: url('#groupbg');" x="84.221" y="242.816" width="589.582" height="335.129" rx="20" ry="20"/>
</svg>
