<?xml version="1.0" encoding="utf-8"?>
<svg viewBox="0 0 151.056 42.296" xmlns="http://www.w3.org/2000/svg">
  <g>
    <path class="svg-text" d="M 100.131 32.461 L 93.631 13.861 C 93.592 13.765 93.592 13.657 93.631 13.561 L 93.831 13.461 L 97.831 13.461 L 98.031 13.661 L 103.131 29.461 L 103.331 29.661 L 103.831 29.661 L 103.931 29.461 L 109.131 13.661 C 109.131 13.661 109.131 13.461 109.331 13.461 L 113.131 13.461 C 113.227 13.422 113.334 13.422 113.431 13.461 L 113.431 13.861 L 107.031 32.461 L 106.831 32.661 L 100.231 32.661 L 100.131 32.461 Z M 138.131 9.261 L 141.531 9.261 C 141.731 9.261 141.931 9.161 141.931 8.861 L 141.931 5.661 C 141.931 5.461 141.731 5.261 141.531 5.261 L 138.131 5.261 C 137.931 5.261 137.731 5.461 137.731 5.661 L 137.731 8.861 C 137.731 9.161 137.931 9.261 138.131 9.261 Z M 138.131 13.361 L 137.831 13.461 L 137.831 32.561 L 138.131 32.661 L 141.931 32.661 L 142.031 32.261 L 142.031 13.761 L 141.931 13.461 L 138.131 13.461 L 138.131 13.361 Z M 90.731 28.261 L 90.731 5.361 L 90.331 5.261 L 87.031 5.261 L 86.731 5.361 L 86.531 5.661 L 86.531 15.861 C 86.381 16.131 85.997 16.138 85.838 15.874 C 85.835 15.87 85.833 15.865 85.831 15.861 L 84.631 14.461 C 83.975 13.932 83.23 13.526 82.431 13.261 C 81.365 12.924 80.246 12.788 79.131 12.861 C 75.838 12.87 72.795 14.62 71.131 17.461 C 70.331 18.861 69.831 20.661 69.831 22.761 L 69.831 23.361 C 69.831 25.361 70.331 27.261 71.131 28.661 C 72.78 31.518 75.832 33.273 79.131 33.261 C 81.131 33.261 82.631 32.961 83.631 32.261 C 84.923 31.468 85.964 30.323 86.631 28.961 L 86.631 28.761 L 88.631 28.761 L 88.731 29.061 L 88.731 32.361 C 88.771 32.45 88.842 32.521 88.931 32.561 C 88.993 32.672 89.104 32.746 89.231 32.761 L 92.531 32.761 C 92.631 32.761 92.731 32.761 92.831 32.561 L 92.931 32.361 L 92.931 28.761 L 91.031 28.761 C 90.942 28.721 90.871 28.65 90.831 28.561 C 90.72 28.499 90.646 28.387 90.631 28.261 L 90.731 28.261 Z M 86.631 23.261 C 86.631 25.261 86.031 26.961 84.831 28.061 C 83.614 29.201 81.996 29.812 80.331 29.761 C 78.531 29.761 77.031 29.161 75.831 28.061 C 74.654 26.747 74.043 25.023 74.131 23.261 L 74.131 22.861 C 74.131 20.861 74.731 19.161 75.831 18.061 C 77.041 16.912 78.663 16.299 80.331 16.361 C 82.231 16.361 83.731 16.961 84.831 18.061 C 86.031 19.161 86.631 20.761 86.631 22.861 L 86.631 23.261 Z M 133.131 28.661 L 132.831 28.561 L 132.631 28.261 L 132.631 20.261 C 132.631 17.861 131.931 16.061 130.431 14.761 C 128.677 13.361 126.472 12.649 124.231 12.761 C 122.631 12.761 121.231 13.061 119.931 13.561 C 117.914 14.422 116.354 16.092 115.631 18.161 C 115.592 18.257 115.592 18.365 115.631 18.461 C 115.693 18.572 115.804 18.646 115.931 18.661 L 118.931 19.661 C 119.124 19.733 119.34 19.647 119.431 19.461 L 119.531 19.361 C 119.831 18.461 120.231 17.761 120.931 17.161 C 121.731 16.561 122.831 16.161 124.231 16.161 C 125.414 16.093 126.584 16.447 127.531 17.161 C 128.231 17.861 128.531 18.761 128.531 19.961 L 128.531 20.761 C 128.569 20.857 128.569 20.965 128.531 21.061 C 128.426 21.166 128.272 21.204 128.131 21.161 L 122.431 21.161 C 121.131 21.161 119.731 21.361 118.431 21.861 C 117.431 22.261 116.431 22.861 115.831 23.861 C 115.131 24.661 114.831 25.861 114.831 27.161 C 114.831 28.361 115.131 29.461 115.831 30.461 C 116.431 31.461 117.431 32.161 118.431 32.461 C 119.731 33.061 121.031 33.261 122.431 33.261 C 124.346 33.335 126.214 32.653 127.631 31.361 C 128.231 30.561 128.631 29.761 129.031 28.961 C 129.031 28.861 129.031 28.761 129.231 28.761 L 129.431 28.661 L 130.131 28.661 L 130.431 28.761 L 130.631 29.061 L 130.631 32.561 L 131.031 32.661 L 134.631 32.661 L 134.831 32.261 L 134.831 29.061 C 134.831 28.961 134.831 28.861 134.631 28.761 L 133.131 28.761 L 133.131 28.661 Z M 128.531 24.661 C 128.531 26.361 128.031 27.661 127.031 28.561 C 125.886 29.522 124.424 30.021 122.931 29.961 C 121.731 29.961 120.731 29.661 119.931 29.161 L 119.231 28.161 C 119.026 27.831 118.922 27.449 118.931 27.061 C 118.931 26.061 119.331 25.461 119.931 25.061 C 120.631 24.561 121.531 24.361 122.631 24.361 L 128.531 24.361 L 128.531 24.661 Z M 59.931 5.261 L 52.631 5.261 L 52.531 5.561 L 47.531 22.061 L 47.531 22.261 L 45.531 22.261 L 45.231 22.361 L 45.131 22.661 L 42.331 32.161 C 42.259 32.285 42.259 32.437 42.331 32.561 C 42.411 32.703 42.569 32.782 42.731 32.761 L 46.331 32.761 L 46.631 32.661 L 46.731 32.461 L 48.531 26.461 L 48.631 26.361 L 48.831 26.261 L 61.931 26.261 L 62.131 26.561 L 63.831 32.461 L 63.931 32.661 L 67.931 32.661 C 68.072 32.704 68.226 32.666 68.331 32.561 C 68.402 32.437 68.402 32.285 68.331 32.161 L 60.431 5.561 L 60.231 5.361 L 60.031 5.361 L 59.931 5.261 Z M 52.131 21.861 L 55.931 8.161 L 56.031 7.961 L 56.631 7.961 L 56.731 8.161 L 60.731 21.761 C 60.774 21.903 60.735 22.057 60.631 22.161 C 60.55 22.303 60.392 22.382 60.231 22.361 L 52.431 22.361 C 52.269 22.382 52.111 22.303 52.031 22.161 C 51.959 22.037 51.959 21.885 52.031 21.761 L 52.131 21.861 Z" style=""/>
    <path class="svg-icon" d="M 26.431 32.861 L 4.731 32.861 C 4.499 32.842 4.284 32.735 4.131 32.561 C 4.008 32.423 3.937 32.246 3.931 32.061 L 3.931 14.761 C 3.931 14.561 3.931 14.361 4.131 14.161 L 4.731 13.961 L 8.731 13.961 L 8.731 27.461 C 8.712 27.68 8.784 27.897 8.931 28.061 C 9.095 28.207 9.312 28.28 9.531 28.261 L 21.731 28.261 C 21.948 28.269 22.161 28.198 22.331 28.061 C 22.477 27.897 22.549 27.68 22.531 27.461 L 22.531 24.161 L 27.331 24.161 L 27.331 32.061 C 27.297 32.26 27.19 32.438 27.031 32.561 C 26.884 32.744 26.665 32.854 26.431 32.861 Z" fill="#00FF82"/>
    <path class="svg-icon" d="M 31.231 24.161 L 27.231 24.161 L 27.231 10.661 C 27.249 10.442 27.177 10.225 27.031 10.061 C 26.866 9.915 26.649 9.843 26.431 9.861 L 14.231 9.861 C 14.031 9.861 13.831 9.861 13.731 10.061 L 13.431 10.661 L 13.431 13.961 L 8.731 13.961 L 8.731 6.061 C 8.712 5.842 8.784 5.625 8.931 5.461 C 9.095 5.315 9.312 5.243 9.531 5.261 L 31.231 5.261 C 31.431 5.261 31.631 5.261 31.831 5.461 L 32.031 6.061 L 32.031 23.361 C 32.024 23.546 31.953 23.723 31.831 23.861 C 31.684 24.044 31.465 24.154 31.231 24.161 Z" fill="#00FF82"/>
  </g>
</svg>