<?xml version="1.0" encoding="UTF-8"?>
<svg id="Layer_1" data-name="Layer 1" xmlns="http://www.w3.org/2000/svg" version="1.1" viewBox="0 0 116 30">
  <defs>
    <style>
      .cls-1 {
        fill: #111;
      }

      .cls-1, .cls-2 {
        stroke-width: 0px;
      }

      .cls-2 {
        fill: #b536fb;
      }
    </style>
  </defs>
  <path class="cls-2" d="M18.3.2h-5.6L.2,20.5c1.6,2.7,3.8,4.9,6.5,6.5,2.7,1.5,5.7,2.4,8.8,2.4s6.1-.8,8.8-2.4c2.7-1.5,4.9-3.8,6.5-6.5L18.3.2ZM7.7,20.5l7.8-12.7,7.8,12.7H7.7Z"/>
  <path class="cls-1" d="M48.6,4.9h-3.6l-7.1,19.3h3.5l1.5-4.4h7.7l1.5,4.4h3.5l-6.9-19.3ZM46.8,7.9l2.8,9.1h-5.7l2.9-9.1Z"/>
  <path class="cls-1" d="M62.8,10.3c-.6.2-1.2.5-1.6,1-.4.5-.7,1.1-.8,1.7v-2.6h-3v13.8h3.1v-7.7c0-.6.1-1.2.4-1.7.2-.5.6-1,1.1-1.4.5-.4,1-.6,1.6-.7.6-.1,1.2,0,1.7,0v-2.7c-.8-.1-1.6,0-2.4,0Z"/>
  <path class="cls-1" d="M101.8,18.1c0,1.9-.7,3.8-3.1,3.9-2.4.2-2.9-1.9-2.9-3.7v-7.9h-3v9.1c0,.7,0,1.3.2,2,.2.6.5,1.2,1,1.7.5.5,1,.9,1.6,1.1.6.2,1.3.4,1.9.3.9,0,1.8,0,2.7-.5.8-.4,1.5-1,2.1-1.8v1.9h2.9v-13.8h-3l-.2,7.7Z"/>
  <path class="cls-1" d="M70.5,20.3v-7.5h3.6v-2.6h-3.6v-4h-3v4.1h-2.4v2.6h2.4v7.5c0,2.2.9,4,4.4,4,.8,0,1.6,0,2.4-.2v-2.4c-.6,0-1.2.1-1.8.1-.2,0-.5,0-.7,0-.2,0-.5-.2-.7-.3-.2-.2-.3-.4-.4-.6,0-.2-.1-.5-.1-.7Z"/>
  <path class="cls-1" d="M85.2,10.1c-.9,0-1.9.1-2.7.5-.8.4-1.5,1.1-2,1.8v-7.5h-3.1v19.3h3.1v-7.3c0-2.1.6-3.9,3.2-4.1,2.6-.2,2.9,1.7,2.9,3.5v7.9h3.2v-9.3c0-.6,0-1.3-.2-1.9-.2-.6-.5-1.2-1-1.6-.4-.5-1-.8-1.6-1.1-.6-.2-1.2-.4-1.9-.3Z"/>
  <path class="cls-1" d="M113.4,10.3c-.6.2-1.1.5-1.6,1-.4.5-.7,1.1-.8,1.7v-2.6h-3v13.8h3.1v-7.7c0-.6.1-1.2.4-1.7.2-.5.6-1,1.1-1.4.5-.4,1-.6,1.6-.7.6-.1,1.2,0,1.7,0v-2.7c-.8-.1-1.7,0-2.5,0Z"/>
</svg>