<?xml version="1.0" encoding="UTF-8"?>
<svg xmlns="http://www.w3.org/2000/svg" width="312" height="38" viewBox="0 0 312 38" fill="none">
  <path d="M123.142 20.226h-3.002V38h3.002V20.226ZM106.697.021l-2.218 2.174 11.877 12.532 2.218-2.174L106.697.02Zm30.933 0-12.791 12.66 2.219 2.174 12.791-12.66L137.63.021ZM32.564 8.845C29.823 2.963 24.994.02 17.816.02c-4.96-.255-9.659 1.79-12.922 5.371-6.525 7.928-6.525 19.181 0 26.982 3.263 3.708 8.092 5.626 12.921 5.37 3.655 0 7.048-1.278 9.92-3.452 2.871-2.046 4.829-4.987 5.612-8.312l-3.263-.767c-.783 2.685-2.35 4.987-4.568 6.777-2.088 1.79-4.83 2.813-7.57 2.813-4.699 0-8.223-1.406-10.702-4.347-2.35-2.814-3.655-6.778-3.655-11.381-.26-4.092 1.044-8.184 3.655-11.509 2.349-2.813 6.003-4.348 10.832-4.348 5.221 0 9.006 2.302 11.486 7.033l3.002-1.406ZM54.882.533 40.264 37.488h3.785l4.177-10.869h17.098l4.307 10.87h3.654L58.928.532h-4.046Zm4.046 9.974 5.09 13.171H49.401l5.22-13.171 1.958-5.754h.261l2.088 5.754ZM83.204.533v36.955h22.841v-2.94H86.728V.532h-3.524Zm67.347 36.955V22.016h11.224c7.57 0 11.486-4.348 11.486-10.742 0-6.266-3.916-10.741-11.486-10.741h-14.748v36.955h3.524Zm11.877-34.014c5.09 0 7.309 3.069 7.309 7.8 0 4.732-2.219 7.8-7.309 7.8h-11.877v-15.6h11.877Zm48.944 6.649C210.458 3.346 206.02.021 197.928.021c-3.132-.128-6.264.768-8.875 2.43-3.915 2.813-4.829 8.44-1.827 12.276.783 1.15 1.827 1.918 3.132 2.557 2.35.896 4.568 1.663 7.048 2.302 2.35.512 4.568 1.279 6.787 2.046 3.133 1.279 4.96 2.941 4.96 6.138-.261 2.302-1.566 4.476-3.785 5.627-2.088 1.023-4.438 1.534-6.787 1.278-7.048 0-10.572-2.813-10.963-9.462l-3.394.639c.783 7.928 6.004 12.02 14.618 12.02 4.699 0 8.223-1.15 10.833-3.452 1.827-1.79 3.002-4.348 3.132-7.034 0-3.964-1.958-6.905-6.004-8.44-2.218-.767-4.437-1.534-6.525-2.173-2.872-.767-4.96-1.407-6.396-1.79-3.002-1.023-4.568-2.43-4.568-5.371 0-4.348 3.916-6.394 9.267-6.394 5.743 0 9.136 2.558 9.658 7.8l3.133-.895Zm16.184-4.603a21.549 21.549 0 0 0 0 27.11c3.132 3.58 7.569 5.37 13.182 5.37 5.612 0 10.049-1.79 13.182-5.37a21.552 21.552 0 0 0 0-27.11c-3.133-3.58-7.57-5.37-13.182-5.37-5.613-.129-10.05 1.79-13.182 5.37Zm23.884 2.046c2.48 3.324 3.785 7.417 3.524 11.509 0 4.73-1.175 8.44-3.654 11.38-2.35 2.941-6.004 4.348-10.833 4.348-4.829 0-8.223-1.407-10.833-4.348-2.35-2.813-3.655-6.777-3.655-11.38-.261-4.092 1.175-8.184 3.655-11.51 2.349-2.812 6.004-4.347 10.833-4.347 4.959 0 8.614 1.407 10.963 4.348Z" fill="#324976"></path>
  <path d="M290.595 28.793h-14.748l-3.133 8.696h-6.917L280.284.02h6.004l14.488 37.468h-6.918l-3.263-8.696Zm-12.921-5.243h11.094l-5.482-15.472-5.612 15.472ZM312 37.489h-6.656V.149H312v37.34Z" fill="#0BBCC1"></path>
</svg>
