<?xml version="1.0" encoding="utf-8"?>
<svg width="138" height="27" viewBox="0 0 138 27" fill="none" xmlns="http://www.w3.org/2000/svg">
  <path fill-rule="evenodd" clip-rule="evenodd" d="M12.541 5.89816L5.39087 10.0251V14.1521L5.46991 14.1982L5.39087 14.2438L19.6911 22.4977L19.6964 22.4946L19.7016 22.4977L19.7485 22.4645L26.8412 18.3707C29.7622 16.6847 30.5225 14.2238 29.1221 12.1344C30.5225 10.0451 29.7622 7.58416 26.8412 5.89816C22.8923 3.61891 16.4899 3.61891 12.541 5.89816ZM7.75483 10.0252L13.7229 6.58048C17.019 4.67801 22.3631 4.67801 25.6592 6.58048C28.9553 8.48295 28.9553 11.5675 25.6592 13.4699L19.6911 16.9147L14.0505 13.659L15.4536 12.8492C16.3843 13.1399 17.5718 13.0583 18.3584 12.6043C19.3174 12.0508 19.3174 11.1534 18.3584 10.5999C17.3994 10.0463 15.8446 10.0463 14.8856 10.5999C14.099 11.0539 13.9576 11.7393 14.4614 12.2765L13.0583 13.0863L7.75483 10.0252Z" fill="#8FAFF5"/>
  <path d="M40.2862 20.3434V6.51859H44.3126C46.6135 6.51859 48.392 7.12685 49.6482 8.34338C50.9044 9.55991 51.5325 11.2921 51.5325 13.5401C51.5325 15.7351 50.911 17.4211 49.668 18.5979C48.425 19.7616 46.6333 20.3434 44.2928 20.3434H40.2862ZM42.8449 17.9831H44.035C45.0796 17.9831 45.9655 17.8508 46.6928 17.5864C47.4201 17.3219 47.9755 16.8591 48.3589 16.1979C48.7556 15.5368 48.954 14.6178 48.954 13.4409C48.954 12.3037 48.7622 11.4045 48.3788 10.7434C48.0085 10.069 47.473 9.59297 46.7722 9.31528C46.0845 9.02437 45.2515 8.87892 44.273 8.87892H42.8449V17.9831ZM54.3258 24.3897L56.3092 19.5897L52.62 10.5649H55.3175L57.6183 17.1302L59.9588 10.5649H62.6167L57.0035 24.3897H54.3258ZM64.147 20.3434V10.5649H66.6264V12.7864L66.2297 12.826C66.4016 12.231 66.6528 11.755 66.9834 11.3979C67.314 11.0409 67.6975 10.7831 68.1338 10.6244C68.5702 10.4525 69.0198 10.3665 69.4826 10.3665C70.5933 10.3665 71.4594 10.6839 72.0809 11.3186C72.7156 11.9401 73.033 12.8194 73.033 13.9566V20.3434H70.5537V14.869C70.5537 14.0492 70.4082 13.4541 70.1173 13.0839C69.8264 12.7004 69.3702 12.5087 68.7487 12.5087C68.2727 12.5087 67.876 12.6211 67.5586 12.8459C67.2545 13.0574 67.0231 13.3946 66.8644 13.8574C66.7057 14.3202 66.6264 14.9219 66.6264 15.6624V20.3434H64.147ZM81.6106 20.3434L81.4122 18.8756V14.1748C81.4122 13.593 81.2271 13.1632 80.8569 12.8855C80.4998 12.5946 80.0106 12.4492 79.3891 12.4492C78.8734 12.4492 78.3445 12.555 77.8023 12.7665C77.2734 12.9649 76.804 13.2492 76.3941 13.6194L75.1445 11.9335C75.8321 11.3781 76.5329 10.9814 77.2469 10.7434C77.9742 10.4921 78.7544 10.3665 79.5874 10.3665C80.9362 10.3665 81.9874 10.7037 82.7412 11.3781C83.4949 12.0525 83.8717 12.9847 83.8717 14.1748V20.3434H81.6106ZM78.6552 20.5417C77.9412 20.5417 77.2998 20.4095 76.7312 20.145C76.1759 19.8806 75.7329 19.5037 75.4023 19.0145C75.085 18.5252 74.9263 17.9632 74.9263 17.3285C74.9263 16.7599 75.0387 16.2773 75.2635 15.8806C75.5015 15.4707 75.8122 15.1599 76.1957 14.9483C76.5263 14.75 76.8899 14.6112 77.2866 14.5318C77.6965 14.4525 78.1329 14.4128 78.5957 14.4128H81.6304V16.2376H78.9527C78.7412 16.2376 78.5296 16.2574 78.318 16.2971C78.1197 16.3235 77.9478 16.3963 77.8023 16.5153C77.6701 16.6078 77.5709 16.7269 77.5048 16.8723C77.4387 17.0045 77.4056 17.1566 77.4056 17.3285C77.4056 17.6988 77.5511 17.9963 77.842 18.2211C78.1329 18.4459 78.523 18.5583 79.0122 18.5583C79.4486 18.5583 79.8453 18.4657 80.2023 18.2806C80.5726 18.0822 80.8635 17.8178 81.075 17.4872C81.2998 17.1434 81.4122 16.7533 81.4122 16.3169L82.0668 17.626C81.8949 18.3136 81.6304 18.8756 81.2734 19.312C80.9296 19.7351 80.5329 20.0459 80.0833 20.2442C79.6337 20.4426 79.1577 20.5417 78.6552 20.5417ZM86.1705 20.3434V10.5649H88.6499V13.1037L88.1144 13.5202C88.2069 12.8988 88.3656 12.3831 88.5904 11.9731C88.8152 11.5632 89.0796 11.2459 89.3838 11.0211C89.7011 10.7831 90.0251 10.6178 90.3557 10.5252C90.6995 10.4194 91.0367 10.3665 91.3672 10.3665C91.8829 10.3665 92.3722 10.4657 92.835 10.664C93.2978 10.8492 93.7011 11.1731 94.0449 11.6359C94.3887 12.0988 94.6267 12.7335 94.759 13.5401L93.2912 14.0756C93.4896 13.15 93.7739 12.4161 94.1441 11.874C94.5276 11.3318 94.9639 10.9483 95.4532 10.7235C95.9557 10.4855 96.4846 10.3665 97.04 10.3665C97.873 10.3665 98.5474 10.5516 99.0631 10.9219C99.5788 11.2921 99.9557 11.7682 100.194 12.35C100.445 12.9186 100.571 13.5269 100.571 14.1748V20.3434H98.111V14.7698C98.111 14.2806 98.0449 13.8707 97.9127 13.5401C97.7937 13.1963 97.6152 12.9384 97.3772 12.7665C97.1391 12.5946 96.8284 12.5087 96.4449 12.5087C96.0482 12.5087 95.711 12.6145 95.4334 12.826C95.1557 13.0376 94.9441 13.355 94.7986 13.7781C94.6664 14.2012 94.6003 14.7434 94.6003 15.4045V20.3434H92.1408V14.7302C92.1408 13.9897 92.002 13.4343 91.7243 13.064C91.4598 12.6938 91.0697 12.5087 90.554 12.5087C90.1441 12.5087 89.7937 12.6145 89.5028 12.826C89.2251 13.0376 89.0135 13.355 88.8681 13.7781C88.7226 14.2012 88.6499 14.7434 88.6499 15.4045V20.3434H86.1705ZM107.369 20.5417C106.417 20.5417 105.571 20.3235 104.831 19.8872C104.09 19.4508 103.502 18.8492 103.065 18.0822C102.642 17.3021 102.431 16.4227 102.431 15.4442C102.431 14.4525 102.642 13.5797 103.065 12.826C103.488 12.0591 104.07 11.4574 104.811 11.0211C105.564 10.5847 106.417 10.3665 107.369 10.3665C108.308 10.3665 109.148 10.5847 109.888 11.0211C110.629 11.4574 111.211 12.0591 111.634 12.826C112.057 13.5797 112.269 14.4525 112.269 15.4442C112.269 16.4227 112.057 17.2954 111.634 18.0624C111.211 18.8293 110.629 19.4376 109.888 19.8872C109.148 20.3235 108.308 20.5417 107.369 20.5417ZM107.369 18.3797C107.872 18.3797 108.302 18.2607 108.659 18.0227C109.029 17.7847 109.307 17.4475 109.492 17.0112C109.69 16.5748 109.789 16.0525 109.789 15.4442C109.789 14.8227 109.69 14.3004 109.492 13.8773C109.307 13.4409 109.029 13.1103 108.659 12.8855C108.302 12.6475 107.872 12.5285 107.369 12.5285C106.854 12.5285 106.411 12.6475 106.04 12.8855C105.67 13.1103 105.386 13.4409 105.188 13.8773C104.989 14.3004 104.89 14.8227 104.89 15.4442C104.89 16.0525 104.989 16.5748 105.188 17.0112C105.386 17.4475 105.67 17.7847 106.04 18.0227C106.411 18.2607 106.854 18.3797 107.369 18.3797Z" style="fill: rgb(0, 0, 0);"/>
  <path d="M115.294 20.3434L120.57 6.51859H121.959L127.235 20.3434H125.331L121.285 9.01776L117.218 20.3434H115.294ZM118.23 17.0905L118.766 15.5235H123.764L124.339 17.0905H118.23ZM129.153 20.3434V6.51859H130.899V20.3434H129.153Z" style="fill: rgb(0, 0, 0);"/>
</svg>