<?xml version="1.0" encoding="utf-8"?>
<svg width="107" height="21" viewBox="0 0 107 21" fill="none" xmlns="http://www.w3.org/2000/svg">
  <g id="Frame" clip-path="url(#clip0_953_4798)">
    <path id="Vector" d="M12.5002 5.32447H14.6334V3.20213H12.5002V5.32447ZM12.5002 0V2.12234H14.6334V0H12.5002ZM12.5002 8.50798H14.6334V6.38564H12.5002V8.50798ZM12.5002 14.7261H14.6334V9.58777H12.5002V14.7261ZM9.52483 5.32447H11.6581V3.20213H9.52483V5.32447ZM9.52483 18.2633H11.6581V6.38564H9.52483V18.2633ZM6.25009 11.7101H8.38335V9.58777H6.25009V11.7101ZM6.25009 2.12234H8.38335V0H6.25009V2.12234ZM6.25009 8.50798H8.38335V3.20213H6.25009V8.50798ZM6.25009 21H8.38335V12.5851H6.25009V21ZM0 5.32447H2.13326V3.20213H0V5.32447ZM0 2.12234H2.13326V0H0V2.12234ZM0 14.7261H2.13326V6.38564H0V14.7261ZM2.97534 18.2633H5.1086V3.20213H2.97534V18.2633Z" fill="url(#paint0_linear_953_4798)"/>
    <g id="Group">
      <path id="Vector_2" d="M29.2482 3.31396L29.2294 6.10652H21.8753V9.77407H27.04V12.5852H21.8753V18.2262H18.4883V3.33258H29.2482V3.31396Z" style="fill: rgb(0, 13, 53);"/>
      <path id="Vector_3" d="M41.0368 12.4922C41.0368 15.9735 38.548 18.3379 34.8803 18.3379C31.2126 18.3379 28.7051 15.9735 28.7051 12.4922C28.7051 9.01078 31.1939 6.66504 34.8803 6.66504C38.5667 6.66504 41.0368 8.97355 41.0368 12.4922ZM31.9798 12.5294C31.9798 14.4097 33.1587 15.6757 34.8616 15.6757C36.5645 15.6757 37.7247 14.3911 37.7247 12.5294C37.7247 10.6677 36.5458 9.38312 34.8616 9.38312C33.1774 9.38312 31.9798 10.6677 31.9798 12.5294Z" style="fill: rgb(0, 13, 53);"/>
      <path id="Vector_4" d="M49.8323 6.646V9.53163C47.4745 9.32685 46.0336 10.7604 46.0336 12.6965V18.2072H42.7401V6.7577H46.0336V8.82419C46.8195 7.42791 48.1294 6.66461 49.8323 6.646Z" style="fill: rgb(0, 13, 53);"/>
      <path id="Vector_5" d="M59.338 17.5743C58.4772 18.0583 57.4106 18.3562 56.3439 18.3562C54.2855 18.3562 52.7323 17.1833 52.7323 14.819V9.53175H51.123V6.64611H52.7323V4.13281H56.0071V6.64611H59.1321V9.55036H56.0071V14.2791C56.0071 15.2286 56.4188 15.6195 57.1112 15.6009C57.5416 15.6009 58.0468 15.452 58.6456 15.1727L59.338 17.5743Z" style="fill: rgb(0, 13, 53);"/>
      <path id="Vector_6" d="M67.5533 18.2072V16.8667C66.7861 17.8162 65.5511 18.3561 63.9418 18.3561C61.4904 18.3561 59.9933 16.8667 59.9933 14.7816C59.9933 12.6965 61.5465 11.3561 64.3721 11.3375H67.5346V11.1327C67.5346 9.92259 66.73 9.21514 65.1394 9.21514C64.1102 9.21514 62.9125 9.55025 61.7149 10.2205L60.6857 7.9678C62.3886 7.11142 63.8669 6.646 65.8879 6.646C68.9755 6.646 70.7345 8.17259 70.7719 10.7604L70.7907 18.2258H67.5533V18.2072ZM67.5159 14.2976V13.2737H64.9335C63.6798 13.2737 63.0435 13.6646 63.0435 14.5768C63.0435 15.4891 63.7359 16.029 64.84 16.029C66.2434 16.029 67.3288 15.2843 67.5159 14.2976Z" style="fill: rgb(0, 13, 53);"/>
      <path id="Vector_7" d="M84.2826 11.0211V18.2072H80.9892V11.9705C80.9892 10.5184 80.1284 9.62478 78.7249 9.62478C77.0782 9.6434 76.0864 10.8721 76.0864 12.5663V18.2072H72.7929V6.75776H76.0864V8.74978C76.8911 7.31627 78.2758 6.64606 80.0722 6.62744C82.6172 6.64606 84.2826 8.34021 84.2826 11.0211Z" style="fill: rgb(0, 13, 53);"/>
      <path id="Vector_8" d="M89.9155 6.75791V18.2074H86.6221V6.75791H89.9155ZM89.8781 3.51855C89.8781 4.4494 89.2232 5.15685 88.2688 5.15685C87.3144 5.15685 86.6595 4.4494 86.6595 3.51855C86.6595 2.5877 87.3144 1.88025 88.2688 1.88025C89.2044 1.86163 89.8781 2.55046 89.8781 3.51855Z" style="fill: rgb(0, 13, 53);"/>
      <path id="Vector_9" d="M95.0612 6.75781L97.1758 10.2392L99.4213 6.77643H103.014L99.3652 12.3429L103.276 18.2073H99.4962L97.1945 14.4653L94.6683 18.2073H91.038L95.0238 12.3615L91.3187 6.75781H95.0612Z" style="fill: rgb(0, 13, 53);"/>
      <path id="Vector_10" d="M107 8.02392C107 8.89892 106.289 9.62498 105.39 9.62498C104.492 9.62498 103.8 8.89892 103.8 8.02392C103.8 7.14892 104.492 6.42285 105.409 6.42285C106.326 6.42285 107 7.14892 107 8.02392ZM106.7 8.02392C106.7 7.31647 106.139 6.73934 105.39 6.73934C104.642 6.73934 104.08 7.33509 104.08 8.04253C104.08 8.74998 104.642 9.32711 105.372 9.32711C106.139 9.32711 106.7 8.73136 106.7 8.02392ZM105.765 8.24732L106.12 8.7686H105.783L105.503 8.30317H105.091V8.7686H104.792V7.20477H105.447C105.858 7.20477 106.083 7.39094 106.083 7.74466C106.083 7.98668 105.97 8.15423 105.765 8.24732ZM105.091 8.04253H105.447C105.671 8.04253 105.802 7.93083 105.802 7.72604C105.802 7.53987 105.671 7.42817 105.447 7.42817H105.091V8.04253Z" style="fill: rgb(0, 13, 53);"/>
    </g>
  </g>
  <defs>
    <linearGradient id="paint0_linear_953_4798" x1="0" y1="10.5" x2="14.6334" y2="10.5" gradientUnits="userSpaceOnUse">
      <stop stop-color="#7C59A4"/>
      <stop offset="0.49" stop-color="#647ABA"/>
      <stop offset="1" stop-color="#3BC5F3"/>
    </linearGradient>
    <clipPath id="clip0_953_4798">
      <rect width="107" height="21" fill="white"/>
    </clipPath>
  </defs>
</svg>