<?xml version="1.0" encoding="utf-8"?>
<svg viewBox="0 0 146.92 29.198" xmlns="http://www.w3.org/2000/svg" xmlns:xlink="http://www.w3.org/1999/xlink">
  <use xlink:href="#svg521343533_8051"/>
  <g transform="matrix(1, 0, 0, 1, -504.213959, -91.798126)">
    <path d="M 548.834 107.667 L 543.114 107.667 L 543.114 114.025 L 539.551 114.025 L 539.551 97.745 L 549.913 97.745 L 549.913 101.045 L 543.115 101.045 L 543.115 104.455 L 548.835 104.455 L 548.835 107.667 L 548.834 107.667 Z M 555.919 114.025 L 552.355 114.025 L 552.355 97.745 L 558.647 97.745 C 562.607 97.745 564.851 99.659 564.851 103.025 C 564.851 105.137 563.949 106.633 562.145 107.557 L 565.005 114.025 L 561.111 114.025 L 558.669 108.327 L 555.919 108.327 L 555.919 114.025 Z M 555.919 100.913 L 555.919 105.203 L 558.625 105.203 C 560.187 105.203 561.089 104.411 561.089 103.025 C 561.089 101.661 560.231 100.913 558.647 100.913 L 555.919 100.913 Z M 577.841 114.025 L 567.501 114.025 L 567.501 97.745 L 577.841 97.745 L 577.841 101.045 L 571.065 101.045 L 571.065 104.235 L 577.071 104.235 L 577.071 107.359 L 571.065 107.359 L 571.065 110.725 L 577.841 110.725 L 577.841 114.025 Z M 591.097 114.025 L 580.757 114.025 L 580.757 97.745 L 591.097 97.745 L 591.097 101.045 L 584.321 101.045 L 584.321 104.235 L 590.327 104.235 L 590.327 107.359 L 584.321 107.359 L 584.321 110.725 L 591.097 110.725 L 591.097 114.025 Z M 600.613 108.613 L 597.577 108.613 L 597.577 114.025 L 594.013 114.025 L 594.013 97.745 L 600.613 97.745 C 603.935 97.745 606.157 99.923 606.157 103.179 C 606.157 106.435 603.935 108.613 600.613 108.613 Z M 599.821 100.913 L 597.577 100.913 L 597.577 105.445 L 599.821 105.445 C 601.537 105.445 602.395 104.697 602.395 103.179 C 602.395 101.661 601.537 100.913 599.821 100.913 Z M 611.972 97.745 L 611.972 110.725 L 618.396 110.725 L 618.396 114.025 L 608.408 114.025 L 608.408 97.745 L 611.972 97.745 L 611.972 97.745 Z M 623.284 114.025 L 619.566 114.025 L 625.374 97.745 L 628.85 97.745 L 634.636 114.025 L 630.852 114.025 L 629.708 110.593 L 624.45 110.593 L 623.284 114.025 Z M 626.65 104.125 L 625.484 107.601 L 628.696 107.601 L 627.53 104.125 C 627.354 103.575 627.156 102.937 627.09 102.541 C 627.024 102.915 626.848 103.531 626.65 104.125 L 626.65 104.125 Z M 638.795 107.843 L 633.295 97.745 L 637.277 97.745 L 640.005 103.025 C 640.269 103.531 640.445 103.927 640.621 104.345 C 640.819 103.949 640.995 103.531 641.259 103.003 L 643.987 97.745 L 647.859 97.745 L 642.359 107.843 L 642.359 114.025 L 638.795 114.025 L 638.795 107.843 L 638.795 107.843 Z" style=""/>
    <path d="M 518.121 108.35 L 518.12 108.643 L 522 108.665 L 522.002 108.372 L 521.988 108.665 C 522.866 108.708 523.693 109.091 524.295 109.732 C 524.905 110.379 525.244 111.235 525.243 112.125 L 525.243 112.14 L 525.532 112.135 L 525.242 112.135 C 525.238 114.045 523.707 115.591 521.822 115.591 L 521.808 115.591 L 521.813 115.885 L 521.813 115.591 C 520.928 115.589 520.079 115.24 519.448 114.62 C 518.813 113.999 518.439 113.158 518.405 112.27 L 518.116 112.282 L 518.406 112.282 L 518.411 108.35 L 517.831 108.35 L 517.827 112.287 L 517.827 112.294 C 517.867 113.332 518.304 114.315 519.047 115.042 C 519.785 115.767 520.777 116.175 521.812 116.178 L 521.818 116.178 L 521.817 116.084 L 521.817 116.178 L 521.818 116.178 L 521.817 116.084 L 521.817 116.178 L 521.822 116.178 C 524.027 116.178 525.816 114.37 525.822 112.136 L 525.822 112.13 L 525.747 112.131 L 525.821 112.131 L 525.821 112.13 L 525.747 112.131 L 525.821 112.131 L 525.821 112.125 C 525.823 111.085 525.427 110.084 524.714 109.327 C 524.01 108.577 523.043 108.129 522.016 108.079 L 522.009 108.079 L 517.832 108.055 L 517.832 108.349 L 518.122 108.349 L 518.121 108.35 Z" fill="#FFE924"/>
    <path d="M 518.104 108.252 L 518.105 107.959 L 512.479 107.927 L 512.477 108.22 L 512.491 107.927 C 511.184 107.863 509.954 107.293 509.059 106.339 C 508.151 105.376 507.646 104.102 507.649 102.779 L 507.649 102.771 L 507.65 102.766 C 507.657 99.923 509.934 97.623 512.738 97.623 L 512.751 97.623 C 514.068 97.625 515.332 98.144 516.271 99.068 C 517.215 99.992 517.77 101.243 517.821 102.564 L 518.111 102.552 L 517.821 102.552 L 517.814 108.252 L 518.393 108.252 L 518.4 102.547 L 518.4 102.54 C 518.343 101.069 517.724 99.675 516.672 98.646 C 515.626 97.617 514.219 97.039 512.752 97.036 L 512.752 97.33 L 512.759 97.037 L 512.738 97.037 C 509.614 97.037 507.079 99.597 507.071 102.764 L 507.361 102.764 L 507.071 102.76 L 507.071 102.78 C 507.071 104.317 507.669 105.716 508.641 106.746 C 509.638 107.808 511.009 108.442 512.464 108.514 L 512.469 108.514 L 518.392 108.548 L 518.392 108.254 L 518.104 108.254 L 518.104 108.252 Z" fill="#FFE924"/>
    <path d="M 517.928 101.717 L 518.074 101.463 L 514.715 99.481 L 514.71 99.478 C 514.138 99.171 513.499 99.011 512.85 99.011 C 512.164 99.011 511.487 99.19 510.889 99.53 C 510.29 99.87 509.769 100.37 509.397 101.013 C 509.036 101.635 508.847 102.341 508.847 103.06 C 508.847 103.755 509.024 104.44 509.359 105.047 C 509.694 105.654 510.189 106.181 510.823 106.558 C 511.434 106.923 512.132 107.115 512.843 107.116 C 514.159 107.116 515.443 106.456 516.203 105.266 L 516.207 105.259 L 518.325 101.612 L 518.074 101.463 L 517.928 101.717 L 517.678 101.568 L 515.711 104.958 L 515.961 105.106 L 515.717 104.946 C 515.093 105.93 514.009 106.527 512.843 106.529 C 511.603 106.522 510.464 105.845 509.864 104.76 C 509.577 104.239 509.426 103.654 509.426 103.06 C 509.426 101.814 510.091 100.662 511.171 100.041 C 511.683 99.751 512.261 99.598 512.849 99.598 C 513.404 99.598 513.95 99.735 514.439 99.997 L 514.574 99.737 L 514.428 99.991 L 517.781 101.971 L 517.927 101.717 L 517.928 101.717 Z" fill="#FFE924"/>
    <path d="M 518.037 101.72 L 517.891 101.973 L 522.758 104.845 L 522.763 104.848 C 523.574 105.282 524.479 105.51 525.399 105.51 C 526.373 105.509 527.331 105.256 528.178 104.775 C 529.057 104.275 529.786 103.55 530.291 102.674 C 530.819 101.761 531.071 100.76 531.071 99.773 C 531.071 98.788 530.821 97.816 530.345 96.956 C 529.856 96.071 529.14 95.332 528.271 94.816 C 527.406 94.299 526.417 94.025 525.409 94.025 C 523.477 94.027 521.681 95.016 520.646 96.647 L 520.643 96.652 L 517.641 101.825 L 517.892 101.973 L 518.038 101.72 L 518.288 101.869 L 521.14 96.955 L 520.89 96.807 L 521.134 96.966 C 522.063 95.501 523.676 94.613 525.41 94.611 C 526.284 94.611 527.169 94.84 527.979 95.321 C 528.76 95.784 529.402 96.448 529.841 97.243 C 530.268 98.015 530.493 98.888 530.493 99.773 C 530.493 100.659 530.268 101.556 529.793 102.377 C 529.34 103.163 528.685 103.814 527.896 104.263 C 527.135 104.695 526.274 104.922 525.399 104.923 C 524.574 104.923 523.761 104.719 523.034 104.33 L 522.899 104.589 L 523.045 104.335 L 518.184 101.466 L 518.038 101.72 L 518.037 101.72 Z" fill="#FFE924"/>
    <path d="M 523.909 104.79 L 524.165 104.653 L 522.343 101.18 L 522.088 101.318 L 522.348 101.192 C 522.128 100.726 522.014 100.217 522.014 99.702 C 522.014 99.083 522.178 98.474 522.486 97.942 C 523.094 96.889 524.216 96.238 525.432 96.232 C 526.042 96.232 526.643 96.398 527.168 96.71 C 528.216 97.34 528.856 98.473 528.856 99.695 C 528.856 100.885 528.25 102.035 527.181 102.678 L 527.328 102.93 L 527.191 102.672 L 523.772 104.532 L 523.909 104.79 L 524.046 105.049 L 527.471 103.185 L 527.476 103.183 C 528.696 102.444 529.439 101.121 529.435 99.695 C 529.435 99.049 529.282 98.394 528.961 97.785 C 528.616 97.13 528.097 96.583 527.461 96.205 C 526.847 95.839 526.146 95.646 525.431 95.645 C 524.795 95.645 524.147 95.801 523.547 96.126 C 522.897 96.479 522.357 97.005 521.987 97.646 C 521.626 98.271 521.435 98.979 521.435 99.701 C 521.435 100.289 521.562 100.884 521.827 101.445 L 521.829 101.45 L 523.789 105.188 L 524.046 105.048 L 523.909 104.79 L 523.909 104.79 Z" fill="#FFE924"/>
    <path d="M 523.911 104.9 L 523.656 105.038 L 526.296 110.072 L 526.552 109.934 L 526.29 110.061 C 526.628 110.775 526.788 111.531 526.788 112.278 C 526.788 113.198 526.544 114.103 526.087 114.894 C 525.616 115.709 524.929 116.378 524.101 116.827 C 523.366 117.227 522.541 117.438 521.704 117.438 C 520.795 117.437 519.903 117.192 519.121 116.728 C 518.311 116.246 517.651 115.55 517.213 114.716 C 516.817 113.968 516.609 113.134 516.61 112.287 C 516.61 110.518 517.51 108.804 519.102 107.849 L 518.955 107.597 L 519.092 107.856 L 524.048 105.159 L 523.911 104.9 L 523.774 104.642 L 518.813 107.342 L 518.807 107.345 C 517.034 108.409 516.031 110.318 516.031 112.287 C 516.031 113.202 516.247 114.131 516.703 114.992 C 517.191 115.921 517.926 116.697 518.828 117.234 C 519.698 117.75 520.692 118.025 521.704 118.025 C 522.607 118.025 523.524 117.805 524.374 117.344 C 525.296 116.844 526.062 116.099 526.586 115.191 C 527.537 113.542 527.622 111.531 526.813 109.808 L 526.81 109.802 L 524.03 104.502 L 523.774 104.642 L 523.911 104.9 L 523.911 104.9 Z" fill="#FFE924"/>
    <path d="M 518.121 108.35 L 518.12 108.643 L 522 108.665 L 522.002 108.372 L 521.988 108.665 C 522.866 108.708 523.693 109.091 524.295 109.732 C 524.905 110.379 525.244 111.235 525.243 112.125 L 525.243 112.14 L 525.532 112.135 L 525.242 112.135 C 525.238 114.045 523.707 115.591 521.822 115.591 L 521.808 115.591 L 521.813 115.885 L 521.813 115.591 C 520.928 115.589 520.079 115.24 519.448 114.62 C 518.813 113.999 518.439 113.158 518.405 112.27 L 518.116 112.282 L 518.406 112.282 L 518.411 108.35 L 518.121 108.35 L 518.121 108.35 Z M 518.121 108.35 L 517.831 108.35 M 517.831 108.35 L 517.827 112.287 L 517.827 112.294 C 517.867 113.332 518.304 114.315 519.047 115.042 C 519.785 115.767 520.777 116.175 521.812 116.178 L 521.818 116.178 M 517.832 108.35 L 517.832 108.055 L 522.009 108.079 L 522.016 108.079 C 523.076 108.13 524.028 108.599 524.714 109.327 C 525.427 110.084 525.823 111.085 525.821 112.125 L 525.821 112.13 M 521.818 116.177 L 521.817 116.083 L 521.817 116.177 M 521.818 116.177 L 521.823 116.177 C 524.027 116.177 525.816 114.369 525.821 112.135 L 525.821 112.13 M 525.821 112.13 L 525.821 112.129 L 525.747 112.13 L 525.821 112.13 Z M 518.104 108.251 L 518.105 107.958 L 512.479 107.926 L 512.477 108.219 L 512.491 107.926 C 511.184 107.862 509.954 107.292 509.059 106.338 C 508.151 105.375 507.646 104.101 507.649 102.778 L 507.649 102.77 L 507.65 102.765 C 507.657 99.922 509.934 97.622 512.738 97.622 L 512.744 97.622 M 518.104 108.252 L 517.814 108.251 L 517.821 102.551 L 518.111 102.551 L 517.821 102.563 C 517.77 101.242 517.215 99.991 516.271 99.067 C 515.332 98.143 514.068 97.624 512.751 97.622 L 512.744 97.622 M 518.104 108.252 L 518.393 108.252 M 512.744 97.623 L 512.745 97.59 M 518.393 108.253 L 518.4 102.547 L 518.4 102.54 C 518.343 101.069 517.724 99.675 516.672 98.646 C 515.626 97.617 514.219 97.039 512.752 97.036 L 512.752 97.33 L 512.759 97.037 L 512.738 97.037 C 509.614 97.037 507.079 99.597 507.071 102.764 L 507.361 102.764 L 507.071 102.76 L 507.071 102.78 C 507.071 104.317 507.669 105.716 508.641 106.746 C 509.638 107.808 511.009 108.442 512.464 108.514 L 512.469 108.514 L 518.392 108.548 L 518.392 108.254 L 518.393 108.253 Z M 517.928 101.717 L 518.074 101.463 M 517.928 101.717 L 517.678 101.568 L 515.711 104.958 L 515.961 105.106 L 515.717 104.946 C 515.093 105.93 514.009 106.527 512.843 106.529 C 511.603 106.522 510.464 105.845 509.864 104.76 C 509.577 104.239 509.426 103.654 509.426 103.06 C 509.426 101.814 510.091 100.662 511.171 100.041 C 511.683 99.751 512.261 99.598 512.849 99.598 C 513.404 99.598 513.95 99.735 514.439 99.997 L 514.574 99.737 L 514.428 99.991 L 517.781 101.971 L 517.927 101.717 L 517.928 101.717 Z M 518.074 101.463 L 514.715 99.481 L 514.71 99.478 C 514.138 99.171 513.499 99.011 512.85 99.011 C 512.164 99.011 511.487 99.19 510.889 99.53 C 510.29 99.87 509.769 100.37 509.397 101.013 C 509.036 101.635 508.847 102.341 508.847 103.06 C 508.847 103.755 509.024 104.44 509.359 105.047 C 509.694 105.654 510.189 106.181 510.823 106.558 C 511.434 106.923 512.132 107.115 512.843 107.116 C 514.159 107.116 515.443 106.456 516.203 105.266 L 516.207 105.259 L 518.325 101.612 L 518.074 101.463 Z M 518.037 101.72 L 517.891 101.973 M 518.037 101.72 L 518.287 101.869 L 521.139 96.955 L 520.889 96.807 L 521.133 96.966 C 522.062 95.501 523.675 94.613 525.409 94.611 C 526.283 94.611 527.168 94.84 527.978 95.321 C 528.759 95.784 529.401 96.448 529.84 97.243 C 530.267 98.015 530.492 98.888 530.492 99.773 C 530.492 100.659 530.267 101.556 529.792 102.377 C 529.339 103.163 528.684 103.814 527.895 104.263 C 527.134 104.695 526.273 104.922 525.398 104.923 C 524.573 104.923 523.76 104.719 523.033 104.33 L 522.898 104.589 L 523.044 104.335 L 518.183 101.466 L 518.037 101.72 L 518.037 101.72 Z M 517.891 101.973 L 522.758 104.845 L 522.763 104.848 C 523.574 105.282 524.479 105.51 525.399 105.51 C 526.373 105.509 527.331 105.256 528.178 104.775 C 529.057 104.275 529.786 103.55 530.291 102.674 C 530.819 101.761 531.071 100.76 531.071 99.773 C 531.071 98.788 530.821 97.816 530.345 96.956 C 529.856 96.071 529.14 95.332 528.271 94.816 C 527.406 94.299 526.417 94.025 525.409 94.025 C 523.477 94.027 521.681 95.016 520.646 96.647 L 520.643 96.652 L 517.641 101.825 L 517.892 101.973 L 517.891 101.973 Z M 523.909 104.79 L 524.165 104.653 L 522.343 101.18 L 522.088 101.318 L 522.348 101.192 C 522.128 100.726 522.014 100.217 522.014 99.702 C 522.014 99.083 522.178 98.474 522.486 97.942 C 523.094 96.889 524.216 96.238 525.432 96.232 C 526.042 96.232 526.643 96.398 527.168 96.71 C 528.216 97.34 528.856 98.473 528.856 99.695 C 528.856 100.885 528.25 102.035 527.181 102.678 L 527.328 102.93 L 527.191 102.672 L 523.772 104.532 L 523.909 104.79 L 523.909 104.79 Z M 523.909 104.79 L 524.046 105.049 M 524.046 105.049 L 527.471 103.185 L 527.476 103.183 C 528.696 102.444 529.439 101.121 529.435 99.695 C 529.435 99.049 529.282 98.394 528.961 97.785 C 528.616 97.13 528.097 96.583 527.461 96.205 C 526.847 95.839 526.146 95.646 525.431 95.645 C 524.795 95.645 524.147 95.801 523.547 96.126 C 522.897 96.479 522.357 97.005 521.987 97.646 C 521.626 98.271 521.435 98.979 521.435 99.701 C 521.435 100.289 521.562 100.884 521.827 101.445 L 521.829 101.45 L 523.789 105.188 L 524.046 105.048 L 524.046 105.049 Z M 523.911 104.9 L 523.656 105.038 L 526.296 110.072 L 526.552 109.934 L 526.29 110.061 C 526.628 110.775 526.788 111.531 526.788 112.278 C 526.788 113.198 526.544 114.103 526.087 114.894 C 525.616 115.709 524.929 116.378 524.101 116.827 C 523.366 117.227 522.541 117.438 521.704 117.438 C 520.795 117.437 519.903 117.192 519.121 116.728 C 518.311 116.246 517.651 115.55 517.213 114.716 C 516.817 113.968 516.609 113.134 516.61 112.287 C 516.61 110.518 517.51 108.804 519.102 107.849 L 518.955 107.597 L 519.092 107.856 L 524.048 105.159 L 523.911 104.9 L 523.911 104.9 Z M 523.911 104.9 L 523.774 104.642 M 523.774 104.642 L 518.813 107.342 L 518.807 107.345 C 517.034 108.409 516.031 110.318 516.031 112.287 C 516.031 113.202 516.247 114.131 516.703 114.992 C 517.191 115.921 517.926 116.697 518.828 117.234 C 519.698 117.75 520.692 118.025 521.704 118.025 C 522.607 118.025 523.524 117.805 524.374 117.344 C 525.296 116.844 526.062 116.099 526.586 115.191 C 527.537 113.542 527.622 111.531 526.813 109.808 L 526.81 109.802 L 524.03 104.502 L 523.774 104.642 L 523.774 104.642 Z" stroke="#FFE924" stroke-width=".214"/>
  </g>
</svg>