<?xml version="1.0" encoding="utf-8"?>
<svg viewBox="0 0 318.17 82.33" xmlns="http://www.w3.org/2000/svg">
  <defs>
    <clipPath id="clip-path">
      <rect id="Rectangle_140988" data-name="Rectangle 140988" width="298.492" height="69.594" fill="none"/>
    </clipPath>
  </defs>
  <path id="Path_39551" data-name="Path 39551" d="M 90.054 59.643 L 90.054 18.706 L 93.52 18.706 L 93.52 36.427 L 101.01 36.427 L 101.01 18.706 L 104.476 18.706 L 104.476 59.643 L 101.01 59.643 L 101.01 39.035 L 93.52 39.035 L 93.52 59.643 L 90.054 59.643 Z" style="fill: rgb(11, 26, 48);"/>
  <rect id="Rectangle_140987" data-name="Rectangle 140987" width="3.466" height="40.938" x="111.245" y="18.705" style="fill: rgb(11, 26, 48);"/>
  <g id="Group_61638" data-name="Group 61638" transform="matrix(1, 0, 0, 1, 6.312276, 4.377235)">
    <g id="Group_61637" data-name="Group 61637" clip-path="url(#clip-path)">
      <path id="Path_39552" data-name="Path 39552" d="M241.759,71.016V30.078h6.3a7.629,7.629,0,0,1,5.024,1.431,7.238,7.238,0,0,1,2.3,4.059,27.876,27.876,0,0,1,.6,6.188V59.293a24.259,24.259,0,0,1-.779,6.827,6.519,6.519,0,0,1-2.547,3.733,8.527,8.527,0,0,1-4.745,1.163Zm3.443-2.977h2.861a4.232,4.232,0,0,0,2.5-.7,4.456,4.456,0,0,0,1.477-2.663,25.379,25.379,0,0,0,.488-5.734V41.383q0-4.535-1.047-6.478a3.423,3.423,0,0,0-3.21-1.943H245.2Z" transform="translate(-126.594 -15.75)" style="fill: rgb(11, 26, 48);"/>
      <path id="Path_39553" data-name="Path 39553" d="M284.289,71.016V30.078h6.3a7.629,7.629,0,0,1,5.024,1.431,7.238,7.238,0,0,1,2.3,4.059,27.88,27.88,0,0,1,.6,6.188V59.293a24.26,24.26,0,0,1-.779,6.827,6.519,6.519,0,0,1-2.547,3.733,8.527,8.527,0,0,1-4.745,1.163Zm3.443-2.977h2.861a4.232,4.232,0,0,0,2.5-.7,4.456,4.456,0,0,0,1.477-2.663,25.378,25.378,0,0,0,.488-5.734V41.383q0-4.535-1.047-6.478a3.423,3.423,0,0,0-3.21-1.943h-3.07Z" transform="translate(-148.864 -15.75)" style="fill: rgb(11, 26, 48);"/>
      <path id="Path_39554" data-name="Path 39554" d="M326.818,71.016V30.079h10.816v2.7h-7.35v16h6.909v2.814h-6.909V68.272h7.281v2.745Z" transform="translate(-171.133 -15.75)" style="fill: rgb(11, 26, 48);"/>
      <path id="Path_39555" data-name="Path 39555" d="M359.679,71.016V30.079H362.1l10.048,31.657-.349-14.1V30.079h3.024V71.016h-2.7L362.7,40.173l.232,11.072V71.016Z" transform="translate(-188.341 -15.75)" style="fill: rgb(11, 26, 48);"/>
      <path id="Path_39556" data-name="Path 39556" d="M405.281,71.016V30.079h8.188v33.96h8.42v6.978Z" transform="translate(-212.22 -15.75)" style="fill: rgb(11, 26, 48);"/>
      <path id="Path_39557" data-name="Path 39557" d="M444.585,71.016l3.954-40.938h13.886l3.885,40.938h-7.746l-.582-6.606h-4.931l-.512,6.606Zm9.048-13.142h3.722l-1.791-20.818h-.372Z" transform="translate(-232.801 -15.75)" style="fill: rgb(11, 26, 48);"/>
      <path id="Path_39558" data-name="Path 39558" d="M498.235,71.016V57.549L491.7,30.079h8.118l2.28,13.863,2.279-13.863h8.094l-6.513,27.47V71.016Z" transform="translate(-257.471 -15.75)" style="fill: rgb(11, 26, 48);"/>
      <path id="Path_39559" data-name="Path 39559" d="M541.549,71.016V30.079h16.375v7.908h-8.048v7.979H557.6v7.7h-7.722v9.374h8.583v7.978Z" transform="translate(-283.575 -15.75)" style="fill: rgb(11, 26, 48);"/>
      <path id="Path_39560" data-name="Path 39560" d="M584.611,71.017V30.079h12.561a6.93,6.93,0,0,1,4.745,1.431,7.174,7.174,0,0,1,2.151,4,29.306,29.306,0,0,1,.547,6.036,13.948,13.948,0,0,1-.849,5.35,4.907,4.907,0,0,1-3.2,2.768,3.67,3.67,0,0,1,2.71,1.919,8.662,8.662,0,0,1,.779,3.942V71.017h-8.071V54.99q0-1.791-.733-2.221a4.871,4.871,0,0,0-2.361-.43V71.017Zm8.327-25.772h1.977q1.7,0,1.7-3.7a8.393,8.393,0,0,0-.372-3.14,1.415,1.415,0,0,0-1.4-.744h-1.907Z" transform="translate(-306.123 -15.75)" style="fill: rgb(11, 26, 48);"/>
      <path id="Path_39561" data-name="Path 39561" d="M56.458,21.66q-.324,0-.644.016l-7.9-7.9c.01-.214.016-.428.016-.644a13.137,13.137,0,0,0-26.274,0c0,.181.007.361.014.54l-8,8c-.179-.007-.358-.014-.539-.014a13.137,13.137,0,0,0,0,26.275c.222,0,.443-.006.662-.017L21.677,55.8c-.011.219-.017.44-.017.661a13.137,13.137,0,1,0,26.274,0c0-.166-.006-.331-.012-.5l8.04-8.04c.164.006.329.013.5.013a13.137,13.137,0,1,0,0-26.274M34.8,3.406a9.731,9.731,0,1,1-9.731,9.731A9.742,9.742,0,0,1,34.8,3.406M3.406,34.8a9.731,9.731,0,1,1,9.731,9.732A9.742,9.742,0,0,1,3.406,34.8M34.8,66.189a9.731,9.731,0,1,1,9.732-9.732A9.743,9.743,0,0,1,34.8,66.189M47.2,52.146a13.135,13.135,0,0,0-24.771-.127l-4.857-4.857a13.135,13.135,0,0,0-.095-24.76l4.92-4.92a13.135,13.135,0,0,0,24.764.08l4.867,4.867A13.135,13.135,0,0,0,52.147,47.2Zm9.253-7.618a9.726,9.726,0,0,1-1.639-19.314h0l0,0a9.727,9.727,0,1,1,1.635,19.314" style="fill: rgb(11, 26, 48);"/>
      <path id="Path_39562" data-name="Path 39562" d="M16.881,72.082A9.731,9.731,0,1,0,7.15,62.351a9.742,9.742,0,0,0,9.731,9.731" transform="translate(-3.744 -27.553)" fill="#35c567"/>
      <path id="Path_39563" data-name="Path 39563" d="M62.351,26.612a9.731,9.731,0,1,0-9.731-9.731,9.742,9.742,0,0,0,9.731,9.731" transform="translate(-27.554 -3.744)" fill="#35c567"/>
      <path id="Path_39564" data-name="Path 39564" d="M117.552,62.35a9.731,9.731,0,1,0-9.731,9.731,9.742,9.742,0,0,0,9.731-9.731" transform="translate(-51.363 -27.553)" fill="#35c567"/>
      <path id="Path_39565" data-name="Path 39565" d="M62.351,98.088a9.731,9.731,0,1,0,9.731,9.731,9.742,9.742,0,0,0-9.731-9.731" transform="translate(-27.554 -51.362)" fill="#35c567"/>
    </g>
  </g>
</svg>