<svg xmlns="http://www.w3.org/2000/svg" viewBox="0 0 1259 184.9"><linearGradient id="a" gradientUnits="userSpaceOnUse" x1="100.67" y1="108.942" x2="100.67" y2="72.388"><stop offset="0" stop-color="#6A2000"/><stop offset="1" stop-color="#F00"/></linearGradient><circle fill="url(#a)" cx="100.7" cy="90.7" r="18.3"/><path d="M143.9 40l-.6-.5-7.4 9.7.5.4c2.2 1.9 4.2 4 6 6.2l-10 6.8c-7.9-9-19.3-14.7-32.1-14.7-12.9 0-24.5 5.6-32.5 14.5l-10-6.2c10-12.4 25.3-20.4 42.4-20.4 9.1 0 18.1 2.3 26 6.6l.5.3 7.4-9.8-.7-.4c-10.1-5.9-21.6-9-33.3-9-36.7 0-66.6 29.9-66.6 66.6 0 13.4 4 26.3 11.5 37.4l.4.6 9.5-7.7-.4-.5c-5.8-8.9-8.9-19.2-8.9-29.8 0-8.6 2-16.7 5.6-24l9.8 6.1c-2.6 5.5-4.1 11.7-4.1 18.3 0 23.8 19.4 43.4 43.1 43.4 21.3 0 39-15.6 42.5-35.6h-11c-3.3 16-16.2 24.6-31.5 24.6-17.8 0-32.4-14.7-32.4-32.6S82.1 58.5 100 58.5c15.7 0 28.9 9.8 31.7 26.8h10.9c-.7-4-2-9-4-13.1l9.9-6.7c3.8 7.5 5.9 16 5.9 24.6 0 30-24.4 54.4-54.4 54.4-14.2 0-27.7-5.5-37.9-15.4l-.5-.4-9.5 7.7.5.6c13.1 13 29.9 20 47.8 20 36.7 0 66.6-29.9 66.6-66.6 0-19.4-8.4-37.7-23.1-50.4z"/><g><path d="M218.4 51.6v80.6h-21.5V51.6h21.5zM283.6 51.6c4.4 0 8.3.6 11.8 1.8 3.5 1.2 6.5 2.8 9 4.8s4.4 4.4 5.7 7.1c1.3 2.7 2 5.6 2 8.6 0 4.7-1.2 8.8-3.6 12.3-2.4 3.5-6.4 6.1-11.8 7.9v.2c2.6.6 4.8 1.5 6.6 2.8 1.7 1.2 3.1 2.7 4.2 4.4 1.1 1.7 1.9 3.6 2.4 5.6.5 2 .8 4.1 1 6.1.1 1.3.2 2.8.3 4.5.1 1.7.3 3.5.5 5.3.2 1.8.6 3.5 1.1 5.1.5 1.6 1.3 3 2.3 4.1h-21.5c-1.2-2.6-1.9-5.6-2.2-9.1-.3-3.5-.7-6.9-1.2-10.2-.7-4.2-2.3-7.3-4.7-9.3-2.4-2-6.2-2.9-11.6-2.9h-21.5v31.5h-21.5V51.6h52.7zM275.9 88c4.9 0 8.6-.9 11.1-2.7 2.5-1.8 3.7-4.7 3.7-8.8 0-3.9-1.2-6.8-3.7-8.5-2.5-1.8-6.2-2.7-11.1-2.7h-23.5V88h23.5zM322.5 75.4c2.2-5.2 5.3-9.7 9.4-13.5 4.1-3.8 9.1-6.8 15.1-9s12.7-3.3 20.2-3.3c7.6 0 14.3 1.1 20.3 3.3 5.9 2.2 10.9 5.2 15.1 9 4.1 3.8 7.3 8.3 9.4 13.5 2.2 5.2 3.3 10.7 3.3 16.8 0 5.9-1.1 11.3-3.3 16.4-2.2 5.1-5.3 9.5-9.4 13.3-4.1 3.8-9.1 6.7-15.1 8.9-5.9 2.1-12.7 3.2-20.3 3.2-7.5 0-14.2-1.1-20.2-3.2s-11-5.1-15.1-8.9c-4.1-3.8-7.3-8.2-9.4-13.3-2.2-5.1-3.3-10.6-3.3-16.4.1-6 1.2-11.6 3.3-16.8zm19.7 26.7c1 3.2 2.5 6.1 4.6 8.6 2.1 2.6 4.8 4.6 8.2 6.2 3.4 1.5 7.5 2.3 12.3 2.3 4.8 0 8.9-.8 12.3-2.3 3.4-1.5 6.1-3.6 8.2-6.2 2.1-2.6 3.6-5.4 4.6-8.6 1-3.2 1.4-6.5 1.4-9.9 0-3.5-.5-7-1.4-10.3-1-3.3-2.5-6.3-4.6-8.9-2.1-2.6-4.8-4.7-8.2-6.2-3.4-1.5-7.5-2.3-12.3-2.3-4.8 0-8.9.8-12.3 2.3-3.4 1.5-6.1 3.6-8.2 6.2-2.1 2.6-3.6 5.6-4.6 8.9-1 3.3-1.4 6.7-1.4 10.3-.1 3.4.4 6.7 1.4 9.9zM583.2 73.1c-1.3-1.7-2.9-3.2-4.9-4.5-2-1.3-4.2-2.3-6.7-3-2.5-.7-5.1-1.1-7.8-1.1-5 0-9.2.8-12.6 2.3-3.5 1.5-6.3 3.6-8.4 6.2-2.2 2.6-3.7 5.6-4.7 8.9-1 3.3-1.5 6.7-1.5 10.3 0 3.4.5 6.7 1.5 9.9s2.5 6.1 4.7 8.6c2.2 2.6 5 4.6 8.4 6.2 3.5 1.5 7.7 2.3 12.6 2.3 6.7 0 12-1.7 15.8-5 3.8-3.3 6.1-7.7 6.9-13.1h21.3c-.6 5-2 9.6-4.3 13.7s-5.4 7.5-9.3 10.4c-3.8 2.9-8.3 5-13.5 6.5-5.1 1.5-10.8 2.3-17 2.3-7.7 0-14.6-1.1-20.7-3.2s-11.3-5.1-15.5-8.9c-4.2-3.8-7.4-8.2-9.7-13.3-2.2-5.1-3.4-10.6-3.4-16.4 0-6 1.1-11.6 3.4-16.8 2.2-5.2 5.5-9.7 9.7-13.5 4.2-3.8 9.4-6.8 15.5-9s13-3.3 20.7-3.3c5.5 0 10.7.6 15.6 1.9 4.9 1.3 9.3 3.1 13.2 5.6 3.9 2.4 7.1 5.5 9.6 9.1 2.5 3.6 4.1 7.8 4.8 12.4h-21.3c-.3-2-1.1-3.8-2.4-5.5zM617.1 75.4c2.2-5.2 5.5-9.7 9.7-13.5 4.2-3.8 9.4-6.8 15.5-9s13-3.3 20.7-3.3c7.8 0 14.7 1.1 20.8 3.3 6.1 2.2 11.2 5.2 15.4 9 4.2 3.8 7.4 8.3 9.7 13.5 2.2 5.2 3.4 10.7 3.4 16.8 0 5.9-1.1 11.3-3.4 16.4-2.2 5.1-5.5 9.5-9.7 13.3-4.2 3.8-9.4 6.7-15.4 8.9-6.1 2.1-13 3.2-20.8 3.2-7.7 0-14.6-1.1-20.7-3.2s-11.3-5.1-15.5-8.9c-4.2-3.8-7.4-8.2-9.7-13.3-2.2-5.1-3.4-10.6-3.4-16.4 0-6 1.2-11.6 3.4-16.8zm20.1 26.7c1 3.2 2.5 6.1 4.7 8.6s5 4.6 8.4 6.2c3.5 1.5 7.7 2.3 12.6 2.3 5 0 9.2-.8 12.6-2.3 3.5-1.5 6.3-3.6 8.4-6.2 2.1-2.6 3.7-5.4 4.7-8.6 1-3.2 1.5-6.5 1.5-9.9 0-3.5-.5-7-1.5-10.3-1-3.3-2.5-6.3-4.7-8.9-2.2-2.6-5-4.7-8.4-6.2-3.5-1.5-7.7-2.3-12.6-2.3-5 0-9.2.8-12.6 2.3-3.5 1.5-6.3 3.6-8.4 6.2s-3.7 5.6-4.7 8.9c-1 3.3-1.5 6.7-1.5 10.3.1 3.4.6 6.7 1.5 9.9zM776.4 51.6c4.5 0 8.5.6 12.1 1.8 3.6 1.2 6.7 2.8 9.3 4.8 2.6 2 4.5 4.4 5.9 7.1 1.4 2.7 2 5.6 2 8.6 0 4.7-1.2 8.8-3.7 12.3s-6.5 6.1-12.1 7.9v.2c2.7.6 5 1.5 6.7 2.8 1.8 1.2 3.2 2.7 4.3 4.4 1.1 1.7 1.9 3.6 2.5 5.6.5 2 .9 4.1 1.1 6.1.1 1.3.2 2.8.3 4.5.1 1.7.3 3.5.5 5.3.2 1.8.6 3.5 1.1 5.1.5 1.6 1.3 3 2.3 4.1h-22c-1.2-2.6-2-5.6-2.2-9.1-.3-3.5-.7-6.9-1.3-10.2-.7-4.2-2.3-7.3-4.8-9.3-2.4-2-6.4-2.9-11.9-2.9h-22v31.5h-22V51.6h53.9zM768.6 88c5 0 8.8-.9 11.4-2.7 2.5-1.8 3.8-4.7 3.8-8.8 0-3.9-1.3-6.8-3.8-8.5-2.5-1.8-6.3-2.7-11.4-2.7h-24.1V88h24.1zM893.8 51.6v14.9H841v17.3h48.5v13.8H841v19.8h54v14.9h-76V51.6h74.8zM929.8 51.6v74.1h50.6v6.5h-59.2V51.6h8.6zM1029 51.6l35.4 80.6h-9.2l-11-25.1H1003l-10.9 25.1H983l36.3-80.6h9.7zm12.3 48.9l-17.5-41.3-18.1 41.3h35.6zM1108.6 51.6c3.8 0 7.4.3 10.9 1 3.5.6 6.6 1.7 9.2 3.3 2.7 1.5 4.8 3.6 6.4 6.1 1.6 2.5 2.4 5.7 2.4 9.4 0 2.1-.4 4.2-1.1 6.2-.8 2-1.8 3.8-3.2 5.4-1.4 1.6-3 3-4.9 4.1-1.9 1.1-4 1.9-6.4 2.4v.2c5.8.7 10.5 2.8 13.9 6.4 3.5 3.6 5.2 8 5.2 13.3 0 1.3-.1 2.7-.4 4.3-.3 1.6-.8 3.3-1.5 5-.8 1.7-1.9 3.4-3.3 5-1.4 1.7-3.4 3.1-5.8 4.3-2.4 1.2-5.4 2.3-8.9 3-3.5.8-7.7 1.2-12.6 1.2h-38.2V51.6h38.3zm0 35.3c3.5 0 6.5-.4 9-1.1 2.5-.7 4.6-1.7 6.3-2.9 1.7-1.2 3-2.7 3.8-4.3.8-1.7 1.3-3.4 1.3-5.3 0-10.1-6.8-15.1-20.4-15.1H1079V87h29.6zm0 38.7c3.2 0 6.2-.2 9.1-.7 2.9-.5 5.4-1.4 7.6-2.7 2.2-1.3 3.9-3 5.2-5.1 1.3-2.1 1.9-4.8 1.9-8.1 0-5.2-2-9.1-6.1-11.7-4.1-2.6-10-3.9-17.7-3.9H1079v32.2h29.6zM1158.7 116c1.5 2.8 3.6 5 6.3 6.7 2.7 1.7 5.8 2.8 9.4 3.6 3.6.7 7.5 1.1 11.6 1.1 2.4 0 4.9-.3 7.7-.9 2.8-.6 5.4-1.6 7.8-2.9 2.4-1.3 4.4-3 6-5.1 1.6-2.1 2.4-4.6 2.4-7.5 0-2.3-.6-4.2-1.7-5.9-1.1-1.7-2.6-3-4.4-4.2-1.8-1.1-3.8-2-6-2.8-2.2-.7-4.3-1.3-6.5-1.7l-20.1-4.4c-2.6-.6-5.2-1.4-7.7-2.3-2.5-.9-4.7-2.1-6.5-3.6-1.9-1.5-3.4-3.3-4.5-5.5s-1.7-4.9-1.7-8c0-2 .4-4.3 1.3-6.9.8-2.6 2.4-5.1 4.7-7.5 2.3-2.3 5.5-4.3 9.6-5.9 4.1-1.6 9.2-2.4 15.6-2.4 4.5 0 8.7.5 12.8 1.6 4 1.1 7.6 2.6 10.6 4.7s5.5 4.7 7.3 7.8c1.8 3.1 2.7 6.8 2.7 10.9h-8.6c-.2-3.1-.9-5.8-2.3-8.1s-3.2-4.2-5.4-5.8c-2.2-1.5-4.8-2.7-7.7-3.5-2.9-.8-6-1.2-9.2-1.2-3 0-5.8.3-8.5.8-2.7.6-5.1 1.5-7.2 2.7-2.1 1.2-3.7 2.9-5 4.9-1.3 2-1.9 4.6-1.9 7.6 0 1.9.4 3.5 1.1 4.9.7 1.4 1.7 2.6 3 3.6s2.7 1.8 4.4 2.4c1.6.6 3.4 1.1 5.3 1.5l22 4.9c3.2.8 6.2 1.7 9.1 2.8 2.8 1.1 5.3 2.4 7.5 4.1 2.2 1.6 3.8 3.6 5.1 5.9 1.2 2.3 1.8 5.2 1.8 8.5 0 .9-.1 2.1-.3 3.6-.2 1.5-.7 3.1-1.5 4.8-.8 1.7-1.9 3.4-3.4 5.1-1.5 1.7-3.5 3.3-6.1 4.7-2.6 1.4-5.8 2.5-9.6 3.4-3.8.9-8.4 1.3-13.7 1.3-5.3 0-10.3-.5-14.8-1.6-4.6-1.1-8.4-2.8-11.6-5s-5.7-5.2-7.4-8.7c-1.7-3.5-2.5-7.8-2.2-12.8h8.6c-.4 4.1.3 7.5 1.8 10.3zM505.6 92.3c0-9 2.4-17.3 7.4-24.3V50.6h-20v54h-2l-42.8-54H425v81h22v-52h.2l42.7 52H513v-15c-5-7-7.4-15.3-7.4-24.3z"/><linearGradient id="b" gradientUnits="userSpaceOnUse" x1="367.775" y1="105.197" x2="367.775" y2="80.459"><stop offset="0" stop-color="#6A2000"/><stop offset="1" stop-color="#F00"/></linearGradient><circle fill="url(#b)" cx="367.8" cy="92.8" r="12.4"/></g></svg>