<?xml version="1.0" encoding="utf-8"?>
<svg width="182" height="23" viewBox="0 0 182 23" fill="none" xmlns="http://www.w3.org/2000/svg">
  <g clip-path="url(#clip0_104_139)">
    <path d="M47.8045 0.57373H43.6187V21.2552C43.6187 21.8636 44.1118 22.3567 44.7202 22.3567H57.8096V18.5282H47.8045V0.57373Z" style="fill: rgb(0, 0, 0);"/>
    <path d="M20.6416 0.602051H12.9868V4.39864H17.8998V9.339H21.7283V1.68875C21.7283 1.08832 21.2421 0.602051 20.6416 0.602051Z" style="fill: rgb(0, 0, 0);"/>
    <path d="M17.8998 18.5288H12.9868V22.3311H20.6416C21.2421 22.3311 21.7283 21.8448 21.7283 21.2444V13.5896H17.8998V18.5288Z" style="fill: rgb(0, 0, 0);"/>
    <path d="M3.82855 13.5896H0V21.2444C0 21.8448 0.486274 22.3311 1.0867 22.3311H8.73695V18.5288H3.82855V13.5896Z" style="fill: rgb(0, 0, 0);"/>
    <path d="M10.9257 8.5055L7.96582 11.4653L10.9257 14.4252L13.8855 11.4653L10.9257 8.5055Z" style="fill: rgb(0, 0, 0);"/>
    <path d="M3.82855 4.39978H8.73695V0.602051H1.0867C0.486274 0.602051 0 1.08832 0 1.68875V9.339H3.82855V4.39864V4.39978Z" style="fill: rgb(0, 0, 0);"/>
    <path d="M117.288 1.67527V21.2552C117.288 21.8636 117.781 22.3567 118.39 22.3567H129.83V18.5282H121.313V4.47191H129.83V0.57373H118.39C117.781 0.57373 117.288 1.06685 117.288 1.67527Z" style="fill: rgb(0, 0, 0);"/>
    <path d="M129.829 9.37378H125.644V13.5596H129.829V9.37378Z" style="fill: rgb(0, 0, 0);"/>
    <path d="M108.957 0.57373H104.262L97.6542 9.69308L96.7706 9.69764V0.57373H92.5825V22.3556H96.7706V13.1541L97.6964 13.1575L104.359 22.351H109.052L101.256 11.3962L108.957 0.57373Z" style="fill: rgb(0, 0, 0);"/>
    <path d="M151.088 0.562988V0.565271H141.848C141.24 0.565271 140.747 1.05839 140.747 1.66681V22.3483H144.931V13.1776H146.05L151.018 22.346H155.635L150.551 13.1776H151.088C153.858 13.1776 156.102 10.9677 156.102 8.19954V5.57755C156.102 2.8083 153.857 0.56413 151.088 0.56413V0.562988ZM152.344 7.71099L152.342 8.1516C152.32 9.13214 151.612 9.74854 150.441 9.74854H144.934V4.47144H150.441C151.631 4.47144 152.344 5.10839 152.344 6.11747V7.71099Z" style="fill: rgb(0, 0, 0);"/>
    <path d="M77.4967 0.57373H72.0255C71.5221 0.57373 71.0827 0.915035 70.9583 1.40245L65.5967 22.3567H69.6832L70.932 17.0191H78.3996L79.6484 22.3567H83.913L78.564 1.40245C78.4396 0.915035 78.0001 0.57373 77.4967 0.57373ZM71.7288 13.6175L73.869 4.47191H75.4648L77.6051 13.6175H71.7299H71.7288Z" style="fill: rgb(0, 0, 0);"/>
    <path d="M176.649 1.40245C176.525 0.915035 176.085 0.57373 175.582 0.57373H170.11C169.607 0.57373 169.168 0.915035 169.043 1.40245L163.682 22.3567H167.768L169.017 17.0191H176.485L177.733 22.3567H181.998L176.648 1.40359L176.649 1.40245ZM169.814 13.6175L171.954 4.47191H173.55L175.69 13.6175H169.815H169.814Z" style="fill: rgb(0, 0, 0);"/>
  </g>
  <defs>
    <clipPath id="clip0_104_139">
      <rect width="182" height="21.7933" fill="white" transform="translate(0 0.5625)"/>
    </clipPath>
  </defs>
</svg>