<svg width="291" height="86" viewBox="0 0 291 86" fill="none" xmlns="http://www.w3.org/2000/svg">
<path d="M56.123 29.5527H59.6266L70.0491 50.4869L80.4715 29.5527H83.9751V54.9979H80.8657V35.0951L70.9321 54.9979H69.1661L59.2324 35.0951V54.9979H56.123V29.5527Z" fill="#0F2E38"/>
<path d="M90.373 52.1515H98.3578V32.3991H90.373V29.5527H109.54V32.3991H101.556V52.1515H109.54V54.9979H90.373V52.1515Z" fill="#0F2E38"/>
<path d="M115.91 29.5527H119.111L135.995 50.6969V29.5527H139.133V54.9979H135.964L119.079 33.8537V54.9979H115.91V29.5527Z" fill="#0F2E38"/>
<path d="M146.986 29.5527H158.9C166.031 29.5527 170.723 33.3396 170.723 42.2769C170.723 51.1515 165.999 55.001 158.9 55.001H146.986V29.5559V29.5527ZM158.872 52.1515C164.813 52.1515 167.405 48.9101 167.405 42.2769C167.405 35.6436 164.816 32.4023 158.872 32.4023H150.187V52.1546H158.872V52.1515Z" fill="#0F2E38"/>
<path d="M176.118 42.2449C176.118 35.1571 180.537 29.248 189.221 29.248C196.626 29.248 201.29 33.7935 201.776 39.154L201.807 39.4863H198.455L198.423 39.154C198.058 34.9722 194.582 32.1854 189.313 32.1854C182.334 32.1854 179.408 36.6995 179.408 42.2418C179.408 48.0286 182.454 52.3609 188.884 52.3609C194.217 52.3609 197.966 49.5427 198.392 44.6368H186.689V41.9722H201.804V54.9973H199.518L199.152 49.7559C197.414 52.9659 194.002 55.2982 188.852 55.2982C180.533 55.2982 176.115 49.4205 176.115 42.2418L176.118 42.2449Z" fill="#0F2E38"/>
<path d="M217.767 29.5527H221.759L232.547 54.9979H229.104L227.032 50.0292H212.494L210.422 54.9979H206.979L217.767 29.5527ZM225.843 47.1828L219.993 33.0668L219.75 32.4618L219.508 33.0668L213.658 47.1828H225.846H225.843Z" fill="#0F2E38"/>
<path d="M256.63 52.7281V49.3049C256.63 45.6685 253.978 44.8221 250.9 44.8221H240.386V55.0008H237.186V29.5557H250.992C256.813 29.5557 259.891 32.0698 259.891 37.098C259.891 40.6434 258.245 42.7312 255.501 43.3676C258.245 44.0039 259.828 46.0948 259.828 49.1231V52.7281C259.828 53.4867 259.828 54.5776 260.194 55.0008H256.993C256.627 54.5776 256.627 53.5149 256.627 52.7281H256.63ZM250.932 41.9726C253.858 41.9726 256.57 41.609 256.57 37.0948C256.57 33.4303 254.347 32.3989 250.538 32.3989H240.39V41.9726H250.935H250.932Z" fill="#0F2E38"/>
<path d="M266.787 29.5527H278.701C285.831 29.5527 290.524 33.3396 290.524 42.2769C290.524 51.1515 285.8 55.001 278.701 55.001H266.787V29.5559V29.5527ZM278.673 52.1515C284.614 52.1515 287.206 48.9101 287.206 42.2769C287.206 35.6436 284.617 32.4023 278.673 32.4023H269.988V52.1546H278.673V52.1515Z" fill="#0F2E38"/>
<path d="M35.5909 21C36.3509 21 36.9627 21.6113 36.9627 22.3636V45.0063C36.9627 46.3793 36.641 47.7116 36.0166 48.931C35.6697 49.6113 35.2219 50.2382 34.7142 50.8088L18.4798 69L2.25163 50.815C1.74075 50.2445 1.29295 49.6176 0.946062 48.9342C0.324815 47.7116 0 46.3793 0 45.0063V22.3636C0 21.6113 0.614941 21 1.37179 21H2.84449L2.80981 44.9248C2.80981 45.7085 2.9801 46.5078 3.2986 47.2539C3.57296 47.8966 3.964 48.4796 4.42757 49L18.4798 64.7116L32.5603 48.9687C32.9009 48.5862 33.2068 48.1693 33.4433 47.7179C33.8848 46.8746 34.115 45.953 34.115 45.0094V21H35.5877H35.5909Z" fill="#0F2E38"/>
<mask id="mask0_934_15890" style="mask-type:luminance" maskUnits="userSpaceOnUse" x="5" y="21" width="27" height="40">
<path d="M6.015 46.1212C5.77849 45.8171 5.65234 45.4441 5.65234 45.0585V21.0303H31.3222V45.1212C31.3222 45.5162 31.1866 45.8986 30.9406 46.2058L18.4873 60.6133L6.01815 46.1212H6.015Z" fill="white"/>
</mask>
<g mask="url(#mask0_934_15890)">
<path d="M14.2024 49.416H11.3516V57.9207H14.2024V49.416Z" fill="#0F2E38"/>
<path d="M14.2024 40.9111H11.3516V46.582H14.2024V40.9111Z" fill="#0F2E38"/>
<path d="M19.9094 46.5791H17.0586V62.6449H19.9094V46.5791Z" fill="#0F2E38"/>
<path d="M19.9094 35.2402H17.0586V43.7449H19.9094V35.2402Z" fill="#0F2E38"/>
<path d="M19.9094 20.1182H17.0586V32.09H19.9094V20.1182Z" fill="#0F2E38"/>
<path d="M25.6145 40.9111H22.7637V57.9237H25.6145V40.9111Z" fill="#0F2E38"/>
<path d="M25.6145 20.1182H22.7637V38.0743H25.6145V20.1182Z" fill="#0F2E38"/>
<path d="M31.3176 20.1182H28.4668V26.7044H31.3176V20.1182Z" fill="#0F2E38"/>
<path d="M31.3176 29.5693H28.4668V38.074H31.3176V29.5693Z" fill="#0F2E38"/>
<path d="M31.3176 40.9111H28.4668V53.3469H31.3176V40.9111Z" fill="#0F2E38"/>
<path d="M14.2024 20.1182H11.3516V38.0743H14.2024V20.1182Z" fill="#0F2E38"/>
<path d="M8.49924 38.0742H5.64844V51.3877H8.49924V38.0742Z" fill="#0F2E38"/>
<path d="M8.49924 20.1182H5.64844V35.0805H8.49924V20.1182Z" fill="#0F2E38"/>
</g>
</svg>
