<?xml version="1.0" encoding="utf-8"?>
<svg viewBox="0 0 197.482 41.174" xmlns="http://www.w3.org/2000/svg">
  <defs>
    <linearGradient id="paint0_linear_123_3265" x1="134.027" y1="9.97818" x2="140.757" y2="9.97818" gradientUnits="userSpaceOnUse">
      <stop stop-color="#3D4FFF"/>
      <stop offset="0.3722" stop-color="#788FFF"/>
      <stop offset="0.6303" stop-color="#24DB96"/>
      <stop offset="1" stop-color="#C7FF00"/>
    </linearGradient>
    <clipPath id="clip0_123_3265">
      <rect width="173.066" height="20" fill="white"/>
    </clipPath>
  </defs>
  <g clip-path="url(#clip0_123_3265)" transform="matrix(1, 0, 0, 1, 12.674769, 10.231542)">
    <path d="M28.5508 10.0358C28.5508 4.15093 32.7314 0.0722656 38.8494 0.0722656C44.9383 0.0722656 49.148 4.15093 49.148 10.0358C49.148 15.9499 44.9383 19.9994 38.8494 19.9994C32.7314 19.9994 28.5508 15.9499 28.5508 10.0358ZM32.9353 10.0358C32.9353 13.6775 35.368 16.2121 38.8494 16.2412C42.3308 16.2412 44.7635 13.6775 44.7635 10.0358C44.7635 6.39419 42.3308 3.83046 38.8494 3.83046C35.368 3.83046 32.9353 6.39419 32.9353 10.0358Z" fill="black"/>
    <path d="M4.31173 19.3443H0V0.655273H5.79752L11.0998 14.377L16.3438 0.655273H22.2287V19.3443H17.917V5.98666L12.7458 19.3443H9.45375L4.31173 5.98666V19.3443Z" fill="black"/>
    <path d="M64.2101 19.9999C59.4613 19.9999 56.0527 17.1449 56.0527 13.1973H60.0149C60.0149 15.2221 61.8211 16.6642 64.3412 16.6642C66.497 16.6642 67.8372 15.5862 67.8372 14.0859C67.8372 12.3233 65.8124 12.0611 63.5109 11.7698C59.8109 11.3036 56.2421 10.5025 56.2421 6.14704C56.2421 2.50538 59.3594 -0.0146484 63.875 -0.0146484C68.4198 -0.0146484 71.6973 2.70931 71.6973 6.46751H67.8663C67.8954 4.63211 66.2348 3.32111 63.977 3.32111C61.9085 3.32111 60.5393 4.29708 60.5393 5.65177C60.5393 7.41434 62.4038 7.67654 64.7636 7.98244C68.3907 8.40487 72.1343 9.19147 72.1343 13.4886C72.1343 17.3488 68.9588 19.9999 64.2101 19.9999Z" fill="black"/>
    <path d="M98.7617 19.3443V0.655273H103.175V15.5715H110.998V19.3443H98.7617Z" fill="black"/>
    <path d="M173.066 0.655273V19.3443H168.652V0.655273H173.066Z" fill="black"/>
    <path d="M157.873 19.3443H162.49L156.241 0.655273H149.832L143.568 19.3443H148.215L149.206 16.2416H154.566L153.517 13.0952H150.211L153.037 4.4426L155.848 13.0952L156.853 16.2416H156.868L157.873 19.3443Z" fill="black"/>
    <path d="M86.9918 6.56934H82.5781V19.3588H86.9918V6.56934Z" fill="black"/>
    <path d="M92.6153 0.655273H76.9707V4.32607H92.6153V0.655273Z" fill="black"/>
    <path d="M120.612 12.8039L114.014 0.655273H118.675L122.812 8.92913L126.759 0.655273H131.494L125.026 12.8039V19.3006H120.612V12.8039Z" fill="black"/>
    <path d="M137.392 13.3431C139.251 13.3431 140.757 11.8366 140.757 9.97818C140.757 8.1198 139.251 6.61328 137.392 6.61328C135.534 6.61328 134.027 8.1198 134.027 9.97818C134.027 11.8366 135.534 13.3431 137.392 13.3431Z" fill="url(#paint0_linear_123_3265)"/>
  </g>
</svg>