<svg width="140" height="24" viewBox="0 0 140 24" fill="none" xmlns="http://www.w3.org/2000/svg">
<path d="M4.42185 14.294C4.42185 18.7183 6.51709 21.4254 9.70897 21.4254C12.9198 21.4254 14.8998 18.7183 14.8998 14.294C14.8998 9.55232 12.9198 7.12509 9.70897 7.12509C6.51709 7.12509 4.42185 9.55148 4.42185 14.294ZM19.3208 14.294C19.3208 20.0063 15.0718 24.0013 9.67027 24.0013C4.32552 24.0013 0 20.0063 0 14.294C0 8.58093 4.32552 4.58594 9.67027 4.58594C15.0339 4.58594 19.3208 8.58093 19.3208 14.294Z" fill="#55A05E"/>
<path d="M114.612 9.85163C114.612 8.47431 115.956 7.57642 117.952 7.57642C120.299 7.57642 121.592 8.58373 121.748 10.1882H125.677C125.599 6.86896 122.719 4.59375 117.952 4.59375C113.766 4.59375 110.846 6.56995 110.846 10.0412C110.846 17.0206 122.256 13.9619 122.256 18.509C122.256 20.0417 120.759 21.0114 118.49 21.0114C115.94 21.0114 114.434 19.9414 114.157 18.2985H110.206C110.44 21.7322 113.662 23.9991 118.491 23.9991C122.794 23.9991 126.022 22.0178 126.022 18.3235C126.021 11.3442 114.612 14.3687 114.612 9.85163Z" fill="#55A05E"/>
<path d="M21.7402 23.6429V4.95929H25.3691V10.7476C26.4528 6.71498 28.7837 4.58594 32.5949 4.58594C36.031 4.58594 38.7172 6.65819 38.7172 10.8211V23.6421H34.7348V12.2401C34.7348 9.75695 33.3853 7.79663 30.719 7.79663C27.1839 7.79663 25.7226 10.8027 25.7226 12.9309V23.6429H21.7402Z" fill="#55A05E"/>
<path d="M107.401 4.96094V23.6438H103.613V17.8413C102.73 21.8739 100.461 24.0029 96.7509 24.0029C93.4059 24.0029 90.7911 21.9307 90.7911 17.7678V4.96094H94.7511V16.3487C94.7511 18.8319 95.9811 20.7922 98.5769 20.7922C102.018 20.7922 103.441 17.7862 103.441 15.658V4.96094H107.401Z" fill="#55A05E"/>
<path d="M50.8208 21.2566C47.4569 21.2566 45.6876 18.7183 45.6876 14.5179V14.1813H59.7986C59.6834 8.28191 56.5878 4.58594 50.6668 4.58594C45.1492 4.58594 41.2468 8.50575 41.2468 14.4427C41.2468 19.8384 44.5153 24.0013 50.7821 24.0013C56.7229 24.0013 59.5096 20.2602 59.6825 16.9184H55.6073C55.3192 19.6062 54.1847 21.2566 50.8208 21.2566ZM50.7055 7.32973C53.8776 7.32973 55.283 9.67343 55.406 12.1416H45.8734C46.3688 8.9785 48.0366 7.32973 50.7055 7.32973Z" fill="#55A05E"/>
<path d="M88.2194 4.9573V8.35091L88.2168 8.79276C86.8802 8.71842 86.3615 8.68083 85.8996 8.68083C83.0845 8.68083 81.2808 9.85686 80.6951 13.2446C80.5833 13.8869 80.5368 14.5376 80.5368 15.1882V23.6384H76.576V4.95312H80.1928V10.8191C80.1928 10.8191 80.1928 10.8182 80.1936 10.8174V10.8166C80.2194 10.7339 80.9368 8.462 81.5363 7.45887L81.5371 7.4572C82.3026 5.95459 83.7476 4.9573 85.4739 4.9573H88.2194Z" fill="#55A05E"/>
<path d="M135.023 19.4788C135.023 20.7133 135.483 21.1593 136.749 21.1593L139.999 21.1785V23.6408H135.369C132.68 23.6408 131.14 22.1499 131.14 19.5381V10.6377H131.136V7.61579H127.279V5.4408C127.535 5.4408 127.453 5.43663 127.804 5.42827C128.428 5.41992 128.901 5.40322 129.226 5.37732C130.033 5.33556 130.571 5.18355 130.84 4.92211C131.105 4.66486 131.282 4.1303 131.377 3.32094C131.447 2.87409 131.499 2.31865 131.534 1.65295C131.568 0.991439 131.586 0.109417 131.586 0H135.022V4.95803H139.999V7.61495H135.022V19.4788H135.023Z" fill="#55A05E"/>
<path d="M68.3086 19.4788C68.3086 20.7133 68.7687 21.1593 70.0348 21.1593L73.2852 21.1785V23.6408H68.6552C65.9656 23.6408 64.426 22.1499 64.426 19.5381V10.6377H64.4217V7.61579H60.5649V5.4408C60.8213 5.4408 60.7387 5.43663 61.0896 5.42827C61.7141 5.41992 62.1871 5.40322 62.5122 5.37732C63.319 5.33556 63.8566 5.18355 64.1258 4.92211C64.3907 4.66486 64.5679 4.1303 64.6634 3.32094C64.7331 2.87409 64.7847 2.31865 64.8199 1.65295C64.8543 0.991439 64.8724 0.109417 64.8724 0H68.3077V4.95803H73.2852V7.61495H68.3077V19.4788H68.3086Z" fill="#55A05E"/>
</svg>
