<?xml version="1.0" encoding="utf-8"?>
<svg width="184" height="56" viewBox="0 0 184 56" fill="none" xmlns="http://www.w3.org/2000/svg">
  <g clip-path="url(#clip0_1048_400)">
    <path d="M62.7598 38.4477C55.1726 38.4477 50.6592 33.0441 50.6592 26.1825C50.6592 19.321 55.1726 13.9174 62.7598 13.9174C70.3471 13.9174 74.9383 19.3599 74.9383 26.1825C74.9383 33.0052 70.3471 38.4477 62.7598 38.4477ZM62.7598 19.1072C58.6939 19.1072 56.5344 22.2756 56.5344 26.1825C56.5344 30.0895 58.7133 33.2579 62.7598 33.2579C66.8063 33.2579 69.0242 30.1284 69.0242 26.1825C69.0242 22.2367 66.8258 19.1072 62.7598 19.1072Z" style="fill: rgb(13, 13, 13);"/>
    <path d="M83.226 19.0294V21.2065C84.7824 19.4571 86.7473 18.6018 89.0624 18.6018C94.3929 18.6018 97.7196 22.9364 97.7196 28.515C97.7196 34.0937 94.4123 38.4283 89.0624 38.4283C86.7473 38.4283 84.7824 37.573 83.226 35.8625V44.1818H77.7788V19.01H83.226V19.0294ZM87.6811 33.7438C90.5993 33.7438 91.9611 31.3335 91.9611 28.515C91.9611 25.6966 90.5993 23.2863 87.6811 23.2863C84.7629 23.2863 83.226 25.6383 83.226 28.515C83.226 31.3918 84.7629 33.7438 87.6811 33.7438Z" style="fill: rgb(13, 13, 13);"/>
    <path d="M100.287 20.7788C102.894 19.2821 105.559 18.6018 108.516 18.6018C113.361 18.6018 116.668 20.3706 116.668 25.2106V33.3161C116.668 34.2103 116.979 34.4824 117.66 34.4824C118.01 34.4824 118.38 34.4047 118.594 34.2297L119.158 37.6507C118.419 38.1173 117.096 38.2922 116.201 38.2922C114.392 38.2922 112.758 37.5536 112.174 35.8819C110.812 37.7674 108.361 38.4477 106.163 38.4477C102.291 38.4477 99.5869 36.3484 99.5869 32.5386C99.5869 27.9513 103.614 26.96 106.571 26.6685C109.567 26.3769 111.201 26.2408 111.201 24.8607C111.201 23.4029 109.489 23.053 108.147 23.053C106.221 23.053 103.906 23.6556 102.135 24.8219L100.326 20.7594L100.287 20.7788ZM111.182 28.8455C110.404 29.7785 109.197 29.8368 107.699 30.0895C106.338 30.3033 104.995 30.6532 104.995 32.3637C104.995 33.8215 106.104 34.5018 107.661 34.5018C109.645 34.5018 111.182 33.3939 111.182 31.0225V28.8455Z" style="fill: rgb(13, 13, 13);"/>
    <path d="M134.586 44.2208V35.9014C133.049 37.6119 131.064 38.4672 128.788 38.4672C123.458 38.4672 120.131 34.1909 120.131 28.554C120.131 22.917 123.438 18.6407 128.788 18.6407C131.103 18.6407 133.068 19.496 134.586 21.2454V19.0684H140.072V44.2402H134.586V44.2208ZM130.169 23.3058C127.251 23.3058 125.87 25.6578 125.87 28.4957C125.87 31.3336 127.251 33.7633 130.169 33.7633C133.088 33.7633 134.586 31.3724 134.586 28.4957C134.586 25.6189 133.126 23.3058 130.169 23.3058Z" style="fill: rgb(13, 13, 13);"/>
    <path d="M161.277 19.0294V38.02H155.83V35.8819C154.332 37.4758 152.347 38.4477 150.13 38.4477C145.83 38.4477 143.729 35.4543 143.729 31.625V19.0294H149.176V30.381C149.176 31.9749 149.682 33.6077 152.133 33.6077C154.157 33.6077 155.83 32.2859 155.83 29.8368V19.0294H161.277Z" style="fill: rgb(13, 13, 13);"/>
    <path d="M183.883 29.9534H170.207C170.382 32.5581 172.269 33.8215 175.012 33.8215C177.191 33.8215 179 32.9663 180.245 31.5862L183.728 34.8517C181.627 36.951 178.786 38.4477 174.681 38.4477C167.892 38.4477 164.351 34.2103 164.351 28.6317C164.351 23.053 168.008 18.6018 174.312 18.6018C180.615 18.6018 183.961 22.5865 183.961 28.3012C183.961 28.9038 183.883 29.5064 183.864 29.934L183.883 29.9534ZM178.611 26.2603C178.397 23.8694 176.685 22.6643 174.448 22.6643C172.055 22.6643 170.421 24.0832 170.246 26.2603H178.611Z" style="fill: rgb(13, 13, 13);"/>
    <path d="M34.4536 43.0156C39.7063 37.7674 40.2899 29.623 36.224 23.7334C40.2705 17.8438 39.6869 9.67994 34.4536 4.4512C28.5395 -1.45786 18.9095 -1.45786 12.9954 4.4512L4.43543 13.0038C-0.817265 18.252 -1.4009 26.3964 2.66508 32.286C-1.38144 38.1756 -0.797811 46.3394 4.43543 51.5682C10.3496 57.4772 19.9795 57.4772 25.8937 51.5682L34.4731 42.9962L34.4536 43.0156ZM21.5748 47.3113C18.0341 50.849 12.2561 50.849 8.69595 47.3113C5.15524 43.7737 5.15524 38.0007 8.69595 34.4436L17.2754 25.8715C19.5904 23.5585 22.8393 22.7615 25.7964 23.4613L28.8702 20.3901C29.4149 19.8459 29.8818 19.2433 30.232 18.6213C24.5902 15.9389 17.645 16.9302 12.9954 21.5953L6.9256 27.6598C5.31088 24.2777 5.91397 20.0985 8.69595 17.319L17.2754 8.74693C20.8161 5.20927 26.594 5.20927 30.1542 8.74693C33.6949 12.2846 33.6949 18.0576 30.1542 21.6147L21.5748 30.1867C19.2597 32.4998 16.0108 33.2967 13.0537 32.597L9.97994 35.6681C9.43522 36.2124 8.96831 36.7955 8.57922 37.4175C14.221 40.1194 21.2051 39.1475 25.8742 34.4824L31.944 28.4179C33.5587 31.8 32.9556 35.9791 30.1736 38.7587L21.5942 47.3308L21.5748 47.3113Z" fill="#00B0FF"/>
  </g>
  <defs>
    <clipPath id="clip0_1048_400">
      <rect width="184" height="56" fill="white"/>
    </clipPath>
  </defs>
</svg>