<svg width="220" height="44" viewBox="0 0 220 44" fill="none" xmlns="http://www.w3.org/2000/svg">
<path d="M42.168 25.5936L28.7653 2.37944C28.0684 1.1723 26.7805 0.428711 25.3865 0.428711H18.3312C19.7152 0.428711 20.994 1.16694 21.686 2.36553L22.47 3.72319L22.4705 3.72336L25.4133 8.82072L33.5167 22.857C34.1618 23.9743 33.3555 25.3708 32.0654 25.3708L15.8586 25.3706L13.7542 29.0152C13.109 30.1325 13.9154 31.5292 15.2055 31.5292H38.7408C40.0025 31.5292 41.1849 30.9137 41.9084 29.88L42.1199 29.5778L42.1683 29.4938C42.8646 28.287 42.8644 26.8004 42.168 25.5936Z" fill="#B56FED"/>
<path d="M25.4133 8.82072L22.47 3.72319L21.686 2.36553C20.994 1.16694 19.7152 0.428711 18.3312 0.428711C16.9473 0.428711 15.6684 1.16689 14.9764 2.36531L1.46851 25.7614C0.771844 26.9681 0.771509 28.4549 1.46784 29.6619L4.98937 35.7623C4.30125 34.5707 4.30108 33.1025 4.98937 31.9108L16.6527 11.7097C17.4035 10.4092 19.2806 10.4092 20.0314 11.7097L21.8883 14.9264L27.9199 25.3706L32.0654 25.3703C33.3555 25.3703 34.1618 23.9738 33.5167 22.8565L25.4133 8.82072Z" fill="#E4C7FD"/>
<path d="M42.1199 29.5778C41.423 30.7849 40.1348 31.5292 38.7408 31.5292H15.2055C13.9154 31.5292 13.109 30.1325 13.7542 29.0152L15.8586 25.3706L21.8883 14.9264L20.0314 11.7097C19.2806 10.4092 17.4035 10.4092 16.6527 11.7097L4.98937 31.9108C4.30108 33.1025 4.30125 34.5707 4.98937 35.7623C5.67732 36.9535 6.94847 37.6874 8.32403 37.6874H35.185C36.5789 37.6874 37.8668 36.9438 38.5636 35.7369L40.9935 31.5289H40.993L42.1193 29.578L42.1199 29.5778Z" fill="#4D1080"/>
<path d="M210.932 29.3278L208.375 34.5463C208.119 35.069 208.498 35.6797 209.081 35.6797H214.677C214.977 35.6797 215.251 35.5089 215.383 35.2388L217.941 30.0202C218.196 29.4974 217.817 28.887 217.234 28.887H211.638C211.339 28.887 211.064 29.0579 210.932 29.3278Z" fill="#9238D9"/>
<path d="M212.172 11.9938L209.614 17.2123C209.359 17.735 209.738 18.3457 210.32 18.3457H215.916C216.216 18.3457 216.49 18.1749 216.623 17.9048L219.18 12.6862C219.436 12.1634 219.056 11.553 218.474 11.553H212.878C212.578 11.553 212.304 11.724 212.172 11.9938Z" fill="#9238D9"/>
<path d="M77.8791 14.515L78.4491 12.5745C79.4511 9.16426 79.1605 6.54084 77.5848 4.77731C76.038 3.04596 73.1446 2.20433 68.7402 2.20433H62.6308C58.5812 2.20433 55.0151 4.87401 53.8731 8.76188L46.2234 34.7937C46.0932 35.2361 46.425 35.6795 46.886 35.6795H52.9071C53.52 35.6795 54.0593 35.2758 54.2324 34.6874L57.2847 24.3005H62.8565C66.9782 24.3005 70.2897 23.51 72.7 21.9512C75.1535 20.3635 76.8955 17.8616 77.8791 14.515ZM70.2864 13.0558L70.2239 13.2682C69.9653 14.1478 69.6691 14.8673 69.3442 15.4062C69.0553 15.884 68.7142 16.2385 68.3011 16.4905C67.8597 16.7594 67.3179 16.9511 66.6913 17.0602C65.9949 17.1817 65.1382 17.2433 64.1441 17.2433H59.3579L60.9607 11.7907C61.4012 10.2908 62.7771 9.2613 64.3393 9.2613H67.0997C67.377 9.2613 67.637 9.26716 67.886 9.27671C68.7283 9.29666 70.3048 9.34258 71.1454 9.42453C71.1454 9.42453 70.6911 11.8324 70.2864 13.0558Z" fill="black"/>
<path d="M97.0554 11.6427C97.2742 11.1939 96.9598 10.6679 96.4611 10.6489L95.9314 10.6286C95.1568 10.5988 94.3617 10.5837 93.5689 10.5837H90.7038C89.1651 10.5837 87.7267 10.7332 86.4281 11.0285C85.0891 11.3337 83.8685 11.8316 82.7992 12.5088C81.7125 13.1974 80.7631 14.1155 79.9778 15.2378C79.2076 16.3389 78.583 17.6942 78.1209 19.2666L73.5578 34.7932C73.4276 35.2356 73.7595 35.6789 74.2208 35.6789H80.1536C80.7661 35.6789 81.3059 35.2752 81.4792 34.6868L85.5669 20.7771C85.7599 20.1178 85.9629 19.5437 86.1704 19.0687C86.3326 18.6963 86.5459 18.3997 86.8228 18.1617C87.1042 17.9199 87.4697 17.7294 87.9091 17.5958C88.3894 17.4498 89.0552 17.3761 89.8895 17.3761C90.3539 17.3761 90.9325 17.3836 91.6237 17.3977C92.3141 17.4124 92.9503 17.4344 93.5149 17.4626L93.7423 17.4741C94.0185 17.4879 94.2763 17.3359 94.3974 17.087L97.0547 11.6422H97.0554V11.6427Z" fill="black"/>
<path d="M119.352 22.2777C119.998 20.0786 120.335 18.2041 120.354 16.706C120.375 15.0652 119.992 13.7144 119.217 12.6921C118.444 11.6732 117.294 10.947 115.799 10.5334C114.437 10.1575 112.706 9.96665 110.654 9.96665C108.585 9.96665 106.747 10.1538 105.19 10.5239C103.575 10.9077 102.129 11.5683 100.893 12.4865C99.6562 13.4059 98.5835 14.6472 97.7046 16.1758C96.8555 17.6531 96.1 19.509 95.4583 21.6926L94.7584 24.0746C94.1127 26.272 93.7758 28.1469 93.7564 29.6462C93.7358 31.2867 94.1179 32.6368 94.8928 33.6591C95.6657 34.6789 96.8159 35.4052 98.3111 35.8185C99.6724 36.1945 101.418 36.3849 103.5 36.3849C105.539 36.3849 107.363 36.1977 108.919 35.8277C110.535 35.4436 111.981 34.7834 113.217 33.8647C114.454 32.9447 115.527 31.704 116.405 30.1759C117.254 28.7003 118.01 26.8438 118.652 24.6591L119.352 22.2772L119.352 22.2777ZM111.962 20.1612L111.961 20.1619C111.854 20.6028 111.725 21.0826 111.572 21.6045L110.807 24.2066C110.426 25.5001 110.049 26.5475 109.685 27.3196C109.357 28.0122 108.994 28.5386 108.606 28.8833C108.242 29.2059 107.808 29.4164 107.279 29.5265C106.648 29.6586 105.83 29.7251 104.847 29.7251C103.871 29.7251 103.097 29.6603 102.545 29.5311C102.052 29.4164 101.951 29.2292 101.917 29.1666C101.842 29.0266 101.729 28.6738 101.821 27.8806C101.908 27.1235 102.145 26.0838 102.525 24.791L103.289 22.1889C103.671 20.8909 104.051 19.8351 104.419 19.0508C104.75 18.3451 105.115 17.8128 105.505 17.4672C105.865 17.147 106.305 16.9371 106.848 16.826C107.43 16.707 108.162 16.6439 109.014 16.6313L109.012 16.6286H109.174C109.219 16.6286 109.26 16.6264 109.306 16.6264C109.458 16.6264 109.602 16.6284 109.743 16.6316C110.862 16.6407 112.96 16.6774 113.802 16.822C113.802 16.822 112.527 17.8376 111.962 20.1609V20.1615L111.962 20.1612Z" fill="black"/>
<path d="M159.062 15.0994C158.921 13.8472 158.446 12.8145 157.648 12.0285C156.894 11.2844 155.867 10.7429 154.599 10.4181C153.426 10.1185 152.031 9.96682 150.455 9.96682C148.737 9.96682 147.126 10.2065 145.666 10.6787C144.58 11.0302 143.608 11.5011 142.766 12.084C142.229 11.5147 141.526 11.0525 140.666 10.704C139.456 10.2147 137.975 9.96715 136.262 9.96715C134.666 9.96715 133.185 10.1163 131.859 10.4109C130.491 10.7154 129.248 11.2123 128.166 11.8882C127.062 12.5765 126.103 13.4961 125.316 14.6212C124.546 15.7223 123.921 17.0776 123.459 18.6502L118.715 34.7943C118.585 35.2368 118.916 35.6802 119.377 35.6802H125.311C125.923 35.6802 126.463 35.2763 126.636 34.6881L130.944 20.0286C131.129 19.3987 131.325 18.8473 131.527 18.3901C131.691 18.0181 131.898 17.7186 132.16 17.4753C132.4 17.252 132.732 17.0796 133.144 16.964C133.392 16.8946 133.688 16.8435 134.025 16.8093C134.089 16.799 135.492 16.5949 138.549 16.8778C138.549 16.8778 137.521 17.7022 136.901 19.5564L136.729 20.1424C136.722 20.1677 136.715 20.1912 136.709 20.2168C136.709 20.2192 136.706 20.2195 136.705 20.222L132.423 34.795C132.293 35.2374 132.625 35.681 133.086 35.681H139.019C139.632 35.681 140.171 35.2771 140.344 34.6887L144.795 19.5441C144.95 19.0157 145.126 18.5525 145.315 18.1676C145.463 17.8669 145.661 17.6244 145.917 17.4257C146.187 17.2172 146.53 17.0553 146.938 16.9448C146.978 16.9341 147.026 16.9261 147.069 16.9167C147.068 16.916 147.066 16.913 147.066 16.913C147.066 16.913 148.292 16.5383 152.204 16.8783C152.204 16.8783 151.243 17.6457 150.62 19.3695C150.612 19.3952 150.605 19.419 150.598 19.4449L146.087 34.795C145.957 35.2374 146.288 35.681 146.75 35.681H152.683C153.296 35.681 153.835 35.2771 154.008 34.6887L158.549 19.2358C159.025 17.6189 159.193 16.2665 159.063 15.1005H159.062L159.062 15.0994Z" fill="black"/>
<path d="M184.532 12.7644C183.782 11.7024 182.654 10.9521 181.178 10.5341C179.844 10.1572 178.155 9.96584 176.159 9.96584C174.147 9.96584 172.326 10.1612 170.748 10.547C169.115 10.9469 167.657 11.6228 166.418 12.5561C165.183 13.4869 164.108 14.7154 163.225 16.2078C162.368 17.6566 161.615 19.4721 160.989 21.6037L154.845 42.5113C154.715 42.9537 155.047 43.397 155.508 43.397H161.441C162.054 43.397 162.594 42.9931 162.766 42.4047L164.8 35.485C165.106 35.6469 165.44 35.7891 165.801 35.9112C166.746 36.2294 167.91 36.3844 169.358 36.3844C171.413 36.3844 173.231 36.1635 174.76 35.7271C176.334 35.2782 177.728 34.5594 178.902 33.5887C180.069 32.6231 181.073 31.3615 181.886 29.8373C182.669 28.3687 183.372 26.5817 183.976 24.5255L184.585 22.4527C185.24 20.2267 185.584 18.3308 185.608 16.8175C185.633 15.1746 185.271 13.8108 184.533 12.7635L184.532 12.7642L184.532 12.7644ZM177.293 19.9372C177.169 20.4817 177.006 21.0972 176.805 21.7806L176.145 24.0295C175.753 25.359 175.374 26.4344 175.016 27.2254C174.697 27.9331 174.332 28.4818 173.93 28.8554C173.562 29.1982 173.13 29.4174 172.608 29.526C171.978 29.6581 171.16 29.7246 170.177 29.7246C169.273 29.7246 168.558 29.6553 168.049 29.5178C167.553 29.3844 167.426 29.1723 167.383 29.1009C167.246 28.8721 167.192 28.4654 167.232 27.9531C167.284 27.2789 167.471 26.3935 167.786 25.3201L168.707 22.1885C169.087 20.8916 169.468 19.8358 169.836 19.0504C170.165 18.3493 170.534 17.82 170.933 17.4765C171.313 17.149 171.751 16.9353 172.273 16.8235C172.851 16.7005 173.591 16.6367 174.462 16.6285L174.461 16.6263H174.589C174.605 16.6263 174.619 16.6256 174.635 16.6256C174.704 16.6256 174.769 16.6266 174.835 16.6273C175.756 16.6322 178.136 16.6603 179.073 16.821C179.073 16.821 177.883 17.7739 177.293 19.9362L177.293 19.9372Z" fill="black"/>
<path d="M197.257 28.8872H195.775C194.507 28.8872 193.689 28.9914 193.689 27.9628C193.689 27.4672 193.893 26.804 194.133 25.982L196.636 17.4644H203.393C203.657 17.4644 203.897 17.3147 204.014 17.0776L206.665 11.6673C206.89 11.2081 206.556 10.6719 206.045 10.6719H198.632L200.235 5.21602C200.378 4.73018 199.967 4.26094 199.467 4.33786L192.711 5.38059C192.447 5.42115 192.229 5.6117 192.153 5.86827L186.325 25.7053C185.812 27.4481 185.518 28.9363 185.45 30.128C185.371 31.4918 185.659 32.6189 186.303 33.4772C186.945 34.3343 187.956 34.9322 189.305 35.2533C190.507 35.5392 192.039 35.6778 193.99 35.6778H202.017C202.28 35.6778 202.521 35.528 202.637 35.2914L205.288 29.8811C205.513 29.4219 205.179 28.8857 204.668 28.8857H197.255V28.8863L197.257 28.8872Z" fill="black"/>
</svg>
