<?xml version="1.0" encoding="utf-8"?>
<svg id="Capa_1" x="0px" y="0px" viewBox="0 0 1409 127" style="enable-background:new 0 0 1409 127;" xmlns="http://www.w3.org/2000/svg">
  <style type="text/css">	.st0{display:none;}	.st1{fill:#FFFFFF;}</style>
  <g id="Layer_3" class="st0"/>
  <g id="Layer_2"/>
  <g>
    <path class="st1" d="M65,6.2L65,6.2c-5.7-3-12.2-4.5-19.6-4.5H0.7v7h44.5c6.2,0,11.6,1.2,16.1,3.6c4.6,2.4,8.1,5.7,10.5,9.8  c2.5,4.2,3.7,9.1,3.7,14.4c0,5.3-1.3,10.2-3.8,14.3c-2.5,4.1-6.1,7.5-10.6,9.9c-4.7,2.4-10.1,3.6-16.1,3.6H0.7v60.7h7.2V71.3h37.4  c7.5,0,14-1.5,19.5-4.4c5.7-3,10.2-7.1,13.3-12.3c3.1-5.3,4.7-11.3,4.7-17.9c0-6.6-1.5-12.7-4.6-18C75.1,13.4,70.8,9.4,65,6.2z" style="fill: rgb(0, 0, 0);"/>
    <path class="st1" d="M264.4,60.2c5.8-6.1,8.8-14,8.8-23.5c0-10.4-3.4-19-10.2-25.3c-6.7-6.3-15.8-9.5-27.1-9.5h-44.6v69.5h44.6  l29.5,53.9h8.3l-30.2-54.8C252.1,69.2,259.1,65.8,264.4,60.2z M266.1,36.7c0,8.4-2.8,15.2-8.3,20.1c-5.5,5-13,7.6-22.3,7.6h-37.2  V8.7h37.4c9.3,0,16.8,2.6,22.2,7.6C263.4,21.3,266.1,28.1,266.1,36.7z" style="fill: rgb(0, 0, 0);"/>
    <path class="st1" d="M465.2,8.9c-8.4-5.3-18.3-8-29.3-8c-10.9,0-20.7,2.7-29.3,8c-8.6,5.4-15.3,12.9-20.1,22.3  c-4.8,9.4-7.2,20.3-7.2,32.3c0,1.9,0.1,3.9,0.3,6.3l0.2,1.5h7.2l-0.2-1.7c-0.2-2.4-0.3-4.2-0.3-6c0-10.9,2.1-20.6,6.2-29  c4.1-8.3,10-14.9,17.4-19.7c7.3-4.7,16-7.1,25.7-7.1c9.5,0,18.1,2.4,25.5,7.1c7.4,4.7,13.3,11.3,17.5,19.7c4.2,8.3,6.3,18,6.3,29  c0,10.7-2.1,20.5-6.3,29c-4.3,8.4-10.2,15-17.5,19.7c-7.3,4.7-15.9,7.1-25.5,7.1h-1.6v7h1.6c10.9,0,20.7-2.7,29.3-8  c8.5-5.3,15.2-12.9,20.1-22.4c4.8-9.4,7.2-20.3,7.2-32.3c0-11.9-2.4-22.8-7.2-32.3C480.4,21.6,473.6,14.1,465.2,8.9z" style="fill: rgb(0, 0, 0);"/>
    <rect x="586.2" y="1.7" class="st1" width="93.7" height="7" style="fill: rgb(0, 0, 0);"/>
    <rect x="629.4" y="35.1" class="st1" width="7.2" height="90.1" style="fill: rgb(0, 0, 0);"/>
    <path class="st1" d="M879.4,64.2L879.4,64.2c0,10.4-2.1,19.9-6.2,28.2c-4.3,8.4-10.2,15-17.5,19.7c-7.3,4.7-15.9,7.1-25.5,7.1  c-9.6,0-18.3-2.4-25.7-7.1c-7.4-4.7-13.3-11.3-17.4-19.7c-4.1-8.4-6.2-18.1-6.2-29c0-10.9,2.1-20.6,6.2-29  c4.1-8.3,10-14.9,17.4-19.7c7.5-4.7,16.2-7.1,25.8-7.1h1.6V2.4l-0.3-1.6h-1.5c-10.8,0-20.7,2.7-29.3,8  c-8.4,5.3-15.2,12.8-20.1,22.3c-4.8,9.4-7.2,20.3-7.2,32.3c0,11.9,2.4,22.8,7.2,32.3c4.7,9.4,11.5,17,20.1,22.4  c8.4,5.3,18.3,8,29.3,8c10.8,0,20.7-2.7,29.3-8c8.5-5.3,15.2-12.9,20.1-22.4c4.8-9.4,7.2-20.3,7.2-32.3v-1.5h-7.2V64.2z" style="fill: rgb(0, 0, 0);"/>
    <path class="st1" d="M1064.2,6.2L1064.2,6.2c-5.7-3-12.2-4.5-19.6-4.5H1000v7h44.5c6.2,0,11.6,1.2,16.1,3.6  c4.6,2.4,8.1,5.7,10.5,9.8c2.5,4.2,3.7,9.1,3.7,14.4c0,5.3-1.3,10.2-3.8,14.3c-2.5,4.1-6.1,7.5-10.6,9.9  c-4.7,2.4-10.1,3.6-16.1,3.6H1000v60.7h7.2V71.3h37.4c7.5,0,14-1.5,19.5-4.4c5.7-3,10.2-7.1,13.3-12.3c3.1-5.3,4.7-11.3,4.7-17.9  c0-6.6-1.5-12.7-4.6-18C1074.5,13.6,1070,9.4,1064.2,6.2z" style="fill: rgb(0, 0, 0);"/>
    <rect x="1190.4" y="1.7" class="st1" width="7.2" height="123.4" style="fill: rgb(0, 0, 0);"/>
    <polygon class="st1" points="1360.4,2.8 1360,1.7 1353.2,1.7 1304.9,125.1 1312.6,125.1 1356.5,12.3 1400.4,124.7 1400.6,125.1   1408.3,125.1  " style="fill: rgb(0, 0, 0);"/>
  </g>
</svg>