<?xml version="1.0" encoding="utf-8"?>
<svg width="187" height="27" viewBox="0 0 187 27" fill="none" xmlns="http://www.w3.org/2000/svg">
  <path d="M20.8276 9.13297V5.80402C20.8276 5.06169 20.3948 4.38667 19.7198 4.07705L11.2061 0.173082C10.9542 0.0576941 10.6849 0 10.4138 0C10.1426 0 9.87337 0.0576941 9.62144 0.173082L1.10773 4.07897C0.432705 4.38859 0 5.06361 0 5.80594V16.0986C0 18.2775 1.0558 20.5756 2.97124 22.5718C4.74053 24.4142 7.16752 25.9219 9.80414 26.8143C10.0022 26.8816 10.208 26.9143 10.4138 26.9143C10.6195 26.9143 10.8253 26.8816 11.0234 26.8143C13.66 25.9219 16.087 24.4161 17.8563 22.5718C19.7717 20.5775 20.8276 18.2775 20.8276 16.0986V12.1292C20.8276 12.1042 20.8276 12.0811 20.8276 12.0561V9.20797C20.8276 9.18297 20.8276 9.15797 20.8276 9.13489V9.13297Z" fill="url(#paint0_linear_1609_991)"/>
  <path d="M18.9273 9.20608V5.80405L10.4136 1.90009V9.27338H17.9638L17.5734 11.5408H10.4136V25.0142C15.256 23.3757 18.9273 19.6025 18.9273 16.0986V12.0562V9.208V9.20608ZM13.0733 22.143C12.6367 22.4065 12.1752 22.6507 11.6944 22.8719L13.3348 13.2812H14.5906L13.0733 22.143ZM16.1484 19.6064C15.7137 20.1353 15.206 20.6391 14.6368 21.1064L15.9753 13.2812H17.2311L16.1484 19.6064Z" fill="#D0CEEA"/>
  <path d="M10.4136 1.90009L1.8999 5.80405V16.0967C1.8999 19.6006 5.57117 23.3738 10.4136 25.0123V11.5408H3.25571L2.86532 9.27338H10.4155V1.90009H10.4136ZM7.49238 13.2831L9.13858 22.9065C8.6578 22.6892 8.19625 22.4488 7.75969 22.1892L6.23465 13.2831H7.49046H7.49238ZM4.85191 13.2831L6.20196 21.1718C5.63655 20.716 5.13269 20.2256 4.69614 19.7102L3.59611 13.2812H4.85191V13.2831Z" fill="white"/>
  <path d="M62.8404 11.5734V11.508C62.8404 7.72329 61.1365 5.64246 56.7536 5.64246H48.0322V21.2698H51.9727V17.3505H56.3421L58.4479 21.2698H62.9327L60.1768 16.7409C62.0538 15.887 62.8423 14.1446 62.8423 11.5734H62.8404ZM56.3998 13.6312H51.9727V9.40411H56.3998C58.0152 9.40411 58.9018 9.64835 58.9018 11.5292C58.9018 13.41 57.9498 13.6312 56.3998 13.6312Z" style="fill: rgb(0, 0, 0);"/>
  <path d="M76.9485 5.64246H71.1272C67.5848 5.64246 65.8809 7.85598 65.8809 11.0426V15.8908C65.8809 19.0563 67.5867 21.2698 71.1272 21.2698H76.9485C80.4909 21.2698 82.1948 19.0563 82.1948 15.8908V11.0426C82.1948 7.85598 80.489 5.64246 76.9485 5.64246ZM78.2543 10.9099V16.3986C78.2543 17.0101 77.7581 17.5063 77.1466 17.5063H70.9291C70.3175 17.5063 69.8214 17.0101 69.8214 16.3986V10.5118C69.8214 9.90028 70.3175 9.40411 70.9291 9.40411H77.1466C77.7581 9.40411 78.2543 9.90028 78.2543 10.5118V10.9099Z" style="fill: rgb(0, 0, 0);"/>
  <path d="M38.8396 5.64246H30.1182V21.2698H34.0587V17.3505H38.8396C43.2224 17.3505 44.9263 15.3581 44.9263 11.5734V11.508C44.9263 7.72329 43.2224 5.64246 38.8396 5.64246ZM38.4857 13.6312H34.0587V9.40411H38.4857C40.1012 9.40411 40.9877 9.64835 40.9877 11.5292C40.9877 13.41 40.0358 13.6312 38.4857 13.6312Z" style="fill: rgb(0, 0, 0);"/>
  <path d="M113.619 9.40603L114.269 5.64246H101.29V21.2698H114.269L113.619 17.5063H105.209V15.1158H112.85V11.708H105.209V9.40603H113.619Z" style="fill: rgb(0, 0, 0);"/>
  <path d="M183.186 9.42911H187V5.64246H183.186H179.269H175.453V9.42911H179.269V9.4368V17.4832H175.453V21.2698H179.269H183.186H187V17.4832H183.186V9.4368V9.42911Z" style="fill: rgb(0, 0, 0);"/>
  <path d="M164.549 5.64246H161.788L154.68 21.2698H159.072L159.814 19.4736L160.078 18.8352H167.67L168.061 19.7775L168.678 21.2698H173.071L165.963 5.64246H164.551H164.549ZM161.405 15.6485L163.884 9.43872L166.363 15.6485H161.405Z" style="fill: rgb(0, 0, 0);"/>
  <path d="M127.245 5.64246H122C118.458 5.64246 116.754 7.85598 116.754 11.0426V15.8908C116.754 19.0563 118.46 21.2698 122 21.2698H127.245C130.787 21.2698 132.491 19.0563 132.491 15.8908V15.3447H128.55V16.3986C128.55 17.0101 128.054 17.5063 127.443 17.5063H121.802C121.191 17.5063 120.694 17.0101 120.694 16.3986V10.5118C120.694 9.90028 121.191 9.40411 121.802 9.40411H127.443C128.054 9.40411 128.55 9.90028 128.55 10.5118V11.5022H132.491V11.0426C132.491 7.85598 130.785 5.64246 127.245 5.64246Z" style="fill: rgb(0, 0, 0);"/>
  <path d="M135.021 9.42719H139.914V9.4368V21.2698H143.876V9.4368V9.42719H148.768V5.64246H135.021V9.42719Z" style="fill: rgb(0, 0, 0);"/>
  <path d="M84.5044 9.40603H89.3969V21.2698H93.3585V9.40603H98.251V5.64246H84.5044V9.40603Z" style="fill: rgb(0, 0, 0);"/>
  <defs>
    <linearGradient id="paint0_linear_1609_991" x1="0.00192313" y1="13.4562" x2="20.8295" y2="13.4562" gradientUnits="userSpaceOnUse">
      <stop stop-color="#602FCD"/>
      <stop offset="1" stop-color="#6F719C"/>
    </linearGradient>
  </defs>
</svg>