<?xml version="1.0" encoding="utf-8"?>
<svg viewBox="0 0 191.856 52.405" xmlns="http://www.w3.org/2000/svg">
  <path d="M 41.707 15.33 L 33.515 10.409 L 25.323 5.488 C 25.092 5.343 24.784 5.343 24.553 5.488 L 8.154 15.346 C 7.908 15.49 7.77 15.747 7.77 16.035 L 7.754 35.736 C 7.754 36.024 7.908 36.281 8.139 36.425 L 24.538 46.267 C 24.661 46.331 24.784 46.379 24.923 46.379 C 25.062 46.379 25.185 46.347 25.308 46.267 L 41.707 36.409 C 41.938 36.265 42.092 36.008 42.092 35.72 L 42.092 16.019 C 42.092 15.731 41.953 15.474 41.707 15.33 Z M 33.9 30.35 L 33.9 21.421 L 40.552 17.414 L 40.552 34.341 L 33.9 30.35 Z M 15.961 21.421 L 15.961 30.35 L 9.294 34.357 L 9.309 17.414 L 15.961 21.421 Z M 39.782 16.019 L 17.501 29.42 L 17.501 21.421 L 33.13 12.028 L 39.782 16.019 Z M 24.938 7.107 L 31.59 11.098 L 16.731 20.027 L 10.079 16.019 L 24.938 7.107 Z M 10.064 35.736 L 32.36 22.335 L 32.36 30.334 L 16.716 39.743 L 10.064 35.736 Z M 24.923 44.664 L 18.256 40.657 L 33.115 31.728 L 39.782 35.736 L 24.923 44.664 Z" style="fill: rgba(0, 0, 0, 0.8);"/>
  <path d="M 65.824 16.443 L 65.824 16.396 C 67.278 16.195 67.892 15.528 67.892 13.217 C 67.892 11.247 67.563 10.534 67.068 10.022 C 66.693 9.634 66.093 9.479 65.254 9.479 L 58.403 9.479 L 58.403 22.647 L 60.441 22.647 L 60.441 17.219 L 63.965 17.219 C 64.699 17.219 65.059 17.281 65.299 17.482 C 65.554 17.699 65.674 17.963 65.689 19.018 C 65.734 20.522 65.794 21.763 65.928 22.647 L 67.967 22.647 C 67.892 21.934 67.847 20.801 67.772 18.956 C 67.697 17.048 67.173 16.707 65.824 16.443 Z M 65.434 15.295 C 65.344 15.388 65.179 15.481 64.654 15.481 L 60.441 15.481 L 60.441 11.278 L 64.669 11.278 C 65.194 11.278 65.374 11.34 65.464 11.433 C 65.629 11.604 65.838 12.007 65.838 13.356 C 65.838 14.706 65.599 15.125 65.434 15.295 Z" style="fill: rgba(0, 0, 0, 0.8);"/>
  <path d="M 77.711 9.479 L 74.068 9.479 C 72.869 9.479 72.419 9.603 71.999 10.006 C 71.294 10.658 70.86 11.619 70.86 16.071 C 70.86 20.507 71.294 21.468 71.999 22.135 C 72.419 22.539 72.869 22.663 74.068 22.663 L 77.711 22.663 C 78.91 22.663 79.36 22.539 79.78 22.135 C 80.484 21.484 80.919 20.522 80.919 16.071 C 80.919 11.635 80.484 10.673 79.78 10.006 C 79.375 9.603 78.91 9.479 77.711 9.479 Z M 78.4 20.631 C 78.251 20.755 78.116 20.863 77.486 20.832 L 74.293 20.832 C 73.678 20.832 73.528 20.755 73.378 20.631 C 73.183 20.445 72.928 19.855 72.928 16.055 C 72.928 12.255 73.183 11.666 73.378 11.48 C 73.528 11.356 73.663 11.278 74.293 11.278 L 77.486 11.278 C 78.101 11.278 78.251 11.356 78.4 11.48 C 78.595 11.666 78.85 12.255 78.85 16.055 C 78.865 19.871 78.61 20.445 78.4 20.631 Z" style="fill: rgba(0, 0, 0, 0.8);"/>
  <path d="M 91.639 15.838 L 91.639 15.807 C 92.868 15.481 93.513 14.939 93.513 13.124 C 93.513 11.201 93.273 10.549 92.733 10.037 C 92.313 9.634 91.669 9.479 90.739 9.479 L 84.098 9.479 L 84.098 22.647 L 90.769 22.647 C 91.654 22.647 92.403 22.461 92.808 22.058 C 93.333 21.546 93.648 20.941 93.648 18.785 C 93.648 16.784 93.093 16.086 91.639 15.838 Z M 86.137 11.278 L 90.319 11.278 C 90.904 11.278 91.099 11.309 91.204 11.433 C 91.384 11.604 91.474 11.883 91.474 13.093 C 91.474 14.318 91.369 14.613 91.189 14.783 C 91.069 14.892 90.874 14.939 90.319 14.939 L 86.137 14.939 L 86.137 11.278 Z M 91.309 20.693 C 91.189 20.832 90.979 20.848 90.424 20.848 L 86.137 20.848 L 86.137 16.707 L 90.424 16.707 C 91.024 16.707 91.174 16.738 91.279 16.862 C 91.444 17.032 91.609 17.327 91.609 18.816 C 91.609 20.243 91.459 20.538 91.309 20.693 Z" style="fill: rgba(0, 0, 0, 0.8);"/>
  <path d="M 104.741 17.622 C 104.741 20.041 104.621 20.196 104.337 20.476 C 104.112 20.708 103.797 20.77 102.433 20.77 L 101.278 20.77 C 99.884 20.77 99.539 20.677 99.329 20.476 C 99.074 20.212 98.895 20.01 98.895 17.622 L 98.895 9.479 L 96.856 9.479 L 96.856 17.172 C 96.856 20.522 97.111 21.174 97.785 21.872 C 98.325 22.43 99.179 22.647 100.844 22.647 L 102.702 22.647 C 104.382 22.647 105.251 22.461 105.836 21.856 C 106.51 21.158 106.78 20.476 106.78 17.172 L 106.78 9.479 L 104.741 9.479 L 104.741 17.622 Z" style="fill: rgba(0, 0, 0, 0.8);"/>
  <path d="M 117.065 15.233 L 113.063 14.861 C 112.553 14.799 112.373 14.783 112.223 14.628 C 112.028 14.427 111.998 14.101 111.998 13.186 C 111.998 12.193 112.043 11.666 112.193 11.495 C 112.343 11.34 112.508 11.294 113.018 11.294 L 116.241 11.294 C 116.78 11.294 116.93 11.387 117.035 11.495 C 117.185 11.65 117.23 11.992 117.275 13.527 L 119.299 13.527 C 119.224 11.17 119.104 10.58 118.564 10.022 C 118.175 9.603 117.59 9.479 116.601 9.479 L 112.673 9.479 C 111.713 9.479 111.129 9.681 110.739 10.084 C 110.154 10.689 109.989 11.511 109.989 13.201 C 109.989 14.939 110.079 15.559 110.589 16.086 C 110.964 16.474 111.518 16.676 112.448 16.769 L 116.451 17.141 C 116.96 17.172 117.14 17.234 117.29 17.389 C 117.485 17.591 117.5 17.901 117.5 18.863 C 117.5 19.979 117.47 20.476 117.305 20.646 C 117.155 20.801 116.99 20.848 116.466 20.848 L 112.883 20.848 C 112.343 20.848 112.193 20.755 112.088 20.646 C 111.938 20.491 111.893 20.15 111.848 18.521 L 109.824 18.521 C 109.854 20.925 110.019 21.577 110.559 22.12 C 110.964 22.539 111.533 22.663 112.538 22.663 L 116.81 22.663 C 117.83 22.663 118.385 22.461 118.774 22.058 C 119.359 21.453 119.524 20.662 119.524 18.847 C 119.524 17.063 119.374 16.412 118.879 15.916 C 118.505 15.497 117.935 15.311 117.065 15.233 Z" style="fill: rgba(0, 0, 0, 0.8);"/>
  <path d="M 121.578 11.278 L 125.581 11.278 L 125.581 22.647 L 127.62 22.647 L 127.62 11.278 L 131.608 11.278 L 131.608 9.479 L 121.578 9.479 L 121.578 11.278 Z" style="fill: rgba(0, 0, 0, 0.8);"/>
  <path d="M 60.293 29.811 L 58.254 29.811 L 58.254 42.979 L 60.293 42.979 L 60.293 29.811 Z" style="fill: rgba(0, 0, 0, 0.8);"/>
  <path d="M 71.985 39.675 L 71.715 39.675 L 67.022 30.431 C 66.797 29.92 66.617 29.811 66.093 29.811 L 63.844 29.811 L 63.844 42.979 L 65.823 42.979 L 65.823 32.665 L 66.093 32.665 L 70.95 42.359 C 71.175 42.871 71.37 42.979 71.895 42.979 L 73.963 42.979 L 73.963 29.811 L 71.985 29.811 L 71.985 39.675 Z" style="fill: rgba(0, 0, 0, 0.8);"/>
  <path d="M 76.348 31.61 L 80.351 31.61 L 80.351 42.979 L 82.39 42.979 L 82.39 31.61 L 86.392 31.61 L 86.392 29.811 L 76.348 29.811 L 76.348 31.61 Z" style="fill: rgba(0, 0, 0, 0.8);"/>
  <path d="M 88.778 42.979 L 97.458 42.979 L 97.458 41.18 L 90.801 41.18 L 90.801 37.054 L 96.318 37.054 L 96.318 35.255 L 90.801 35.255 L 90.801 31.61 L 97.458 31.61 L 97.458 29.811 L 88.778 29.811 L 88.778 42.979 Z" style="fill: rgba(0, 0, 0, 0.8);"/>
  <path d="M 102.719 29.811 L 100.68 29.811 L 100.68 42.979 L 108.131 42.979 L 108.131 41.18 L 102.719 41.18 L 102.719 29.811 Z" style="fill: rgba(0, 0, 0, 0.8);"/>
  <path d="M 112.555 29.811 L 110.516 29.811 L 110.516 42.979 L 117.967 42.979 L 117.967 41.18 L 112.555 41.18 L 112.555 29.811 Z" style="fill: rgba(0, 0, 0, 0.8);"/>
  <path d="M 122.391 29.811 L 120.352 29.811 L 120.352 42.979 L 122.391 42.979 L 122.391 29.811 Z" style="fill: rgba(0, 0, 0, 0.8);"/>
  <path d="M 130.576 37.876 L 133.544 37.876 L 133.544 38.528 C 133.544 40.11 133.304 40.761 133.109 40.963 C 132.959 41.087 132.824 41.195 132.195 41.164 L 129.046 41.164 C 128.432 41.164 128.282 41.087 128.132 40.963 C 127.937 40.777 127.682 40.187 127.682 36.387 C 127.682 32.587 127.937 31.998 128.132 31.812 C 128.282 31.688 128.417 31.61 129.046 31.61 L 132.195 31.61 C 132.809 31.61 132.959 31.688 133.109 31.812 C 133.304 31.998 133.469 32.37 133.514 33.937 L 135.493 33.937 C 135.463 31.61 135.208 30.99 134.488 30.323 C 134.069 29.935 133.604 29.811 132.405 29.811 L 128.822 29.811 C 127.622 29.811 127.173 29.935 126.753 30.338 C 126.048 30.99 125.613 31.951 125.613 36.403 C 125.613 40.839 126.048 41.8 126.753 42.467 C 127.173 42.871 127.622 42.995 128.822 42.995 L 132.405 42.995 C 133.604 42.995 134.054 42.871 134.473 42.467 C 135.178 41.816 135.583 40.668 135.583 37.768 L 135.583 36.077 L 130.561 36.077 L 130.561 37.876 L 130.576 37.876 Z" style="fill: rgba(0, 0, 0, 0.8);"/>
  <path d="M 138.805 42.979 L 147.5 42.979 L 147.5 41.18 L 140.844 41.18 L 140.844 37.054 L 146.361 37.054 L 146.361 35.255 L 140.844 35.255 L 140.844 31.61 L 147.5 31.61 L 147.5 29.811 L 138.805 29.811 L 138.805 42.979 Z" style="fill: rgba(0, 0, 0, 0.8);"/>
  <path d="M 158.863 39.675 L 158.593 39.675 L 153.901 30.431 C 153.676 29.92 153.496 29.811 152.972 29.811 L 150.723 29.811 L 150.723 42.979 L 152.702 42.979 L 152.702 32.665 L 152.972 32.665 L 157.829 42.359 C 158.054 42.871 158.249 42.979 158.773 42.979 L 160.842 42.979 L 160.842 29.811 L 158.863 29.811 L 158.863 39.675 Z" style="fill: rgba(0, 0, 0, 0.8);"/>
  <path d="M 171.456 40.963 C 171.306 41.087 171.171 41.195 170.542 41.164 L 167.453 41.164 C 166.839 41.164 166.689 41.087 166.539 40.963 C 166.344 40.777 166.089 40.187 166.089 36.387 C 166.089 32.587 166.344 31.998 166.539 31.812 C 166.689 31.688 166.824 31.61 167.453 31.61 L 170.542 31.61 C 171.156 31.61 171.306 31.688 171.456 31.812 C 171.651 31.998 171.816 32.463 171.876 34.123 L 173.915 34.123 C 173.885 31.843 173.555 30.974 172.835 30.323 C 172.416 29.935 171.966 29.811 170.767 29.811 L 167.243 29.811 C 166.044 29.811 165.594 29.935 165.175 30.338 C 164.47 30.99 164.035 31.951 164.035 36.403 C 164.035 40.839 164.47 41.8 165.175 42.467 C 165.594 42.871 166.044 42.995 167.243 42.995 L 170.767 42.995 C 171.966 42.995 172.416 42.871 172.835 42.467 C 173.54 41.816 173.84 41.071 173.93 38.466 L 171.876 38.466 C 171.816 40.404 171.651 40.777 171.456 40.963 Z" style="fill: rgba(0, 0, 0, 0.8);"/>
  <path d="M 185.848 31.61 L 185.848 29.811 L 177.152 29.811 L 177.152 42.979 L 185.848 42.979 L 185.848 41.18 L 179.191 41.18 L 179.191 37.054 L 184.693 37.054 L 184.693 35.255 L 179.191 35.255 L 179.191 31.61 L 185.848 31.61 Z" style="fill: rgba(0, 0, 0, 0.8);"/>
</svg>