<?xml version="1.0" encoding="UTF-8" standalone="no"?>
<!DOCTYPE svg PUBLIC "-//W3C//DTD SVG 1.1//EN" "http://www.w3.org/Graphics/SVG/1.1/DTD/svg11.dtd">
<svg width="100%" height="100%" viewBox="0 0 123 37" version="1.1" xmlns="http://www.w3.org/2000/svg" xmlns:xlink="http://www.w3.org/1999/xlink" xml:space="preserve" xmlns:serif="http://www.serif.com/" style="fill-rule:evenodd;clip-rule:evenodd;stroke-linejoin:round;stroke-miterlimit:2;">
    <g id="Page-1">
        <g id="logo_color">
            <path id="Path" d="M20.215,20.984L27.395,10.3C27.694,9.83 28.25,9.531 28.805,9.531L32.225,9.531L27.566,16.796C27.481,16.924 27.481,17.138 27.523,17.266L33.122,28.079L29.959,28.079C29.318,28.079 28.763,27.737 28.464,27.181L24.959,20.642C24.874,20.472 24.66,20.472 24.532,20.6L19.403,28.122L16.283,28.122L16.283,0L19.916,0L19.916,20.856C19.916,21.07 20.13,21.113 20.215,20.984Z" style="fill:rgb(64,62,107);fill-rule:nonzero;"/>
            <path id="Path1" serif:id="Path" d="M37.952,36.627L33.806,36.627L39.832,24.874C39.918,24.746 39.918,24.575 39.832,24.446L32.268,9.573L35.259,9.573C35.9,9.573 36.456,9.915 36.755,10.471L41.884,20.215C41.969,20.386 42.225,20.386 42.311,20.215L47.012,10.514C47.311,9.915 47.91,9.531 48.551,9.531L51.542,9.531L37.952,36.627Z" style="fill:rgb(64,62,107);fill-rule:nonzero;"/>
            <path id="Path2" serif:id="Path" d="M58.038,3.248L63.936,3.248L63.936,0.042L57.825,0.042C53.935,0.085 51.542,2.991 51.542,6.881L51.542,28.164L55.175,28.164L55.175,12.65L60.132,12.65L61.628,9.53L55.175,9.53L55.175,6.624C55.175,4.658 56.243,3.291 58.038,3.248Z" style="fill:rgb(64,62,107);fill-rule:nonzero;"/>
            <path id="Path3" serif:id="Path" d="M7.778,17.096C4.958,16.412 3.889,16.07 3.889,14.531C3.889,12.993 5.214,12.394 7.308,12.394C9.146,12.394 10.556,13.035 11.668,13.805L13.121,10.899C11.668,9.873 9.573,9.146 7.308,9.146C2.992,9.146 0.256,11.198 0.256,14.745C0.256,17.651 2.094,19.19 6.453,20.173C9.317,20.857 10.428,21.412 10.428,22.908C10.428,24.489 8.89,25.259 6.71,25.259C4.616,25.259 2.821,24.575 1.496,23.506L0,26.498C1.667,27.695 4.103,28.464 6.71,28.464C11.283,28.464 14.146,26.199 14.146,22.694C14.061,19.916 12.095,18.121 7.778,17.096Z" style="fill:rgb(64,62,107);fill-rule:nonzero;"/>
            <path id="Path4" serif:id="Path" d="M73.595,25.087L72.484,25.087C70.603,25.087 69.278,23.677 69.278,21.626L69.278,0L65.646,0L65.646,21.412C65.646,25.344 67.74,28.25 71.971,28.293L73.595,25.087Z" style="fill:rgb(64,62,107);fill-rule:nonzero;"/>
            <path id="Path5" serif:id="Path" d="M123,9.573L117.273,9.573C116.632,9.573 116.034,9.958 115.734,10.514L110.82,20.557C110.734,20.728 110.478,20.728 110.392,20.557L105.435,10.343C105.264,10.043 104.836,10.043 104.665,10.343L99.708,20.557C99.622,20.728 99.366,20.728 99.28,20.557L94.365,10.514C94.066,9.915 93.468,9.573 92.827,9.573L89.878,9.573L99.024,27.951C99.195,28.25 99.622,28.25 99.793,27.951L104.836,17.907C104.922,17.736 105.178,17.736 105.264,17.907L110.179,27.908C110.349,28.207 110.777,28.207 110.948,27.908L118.213,13.548C118.512,12.992 118.94,12.522 119.41,12.137L123,9.573Z" style="fill:rgb(64,62,107);fill-rule:nonzero;"/>
            <path id="Shape" d="M82.228,9.356C87.784,9.356 91.16,13.074 91.16,19.015C91.16,24.955 87.827,28.673 82.228,28.673C76.629,28.673 73.296,24.955 73.296,19.015C73.296,13.074 76.672,9.356 82.228,9.356ZM82.228,25.468C85.647,25.468 87.528,23.203 87.528,19.015C87.528,14.826 85.647,12.561 82.228,12.561C78.809,12.561 76.929,14.826 76.929,19.015C76.929,23.203 78.809,25.468 82.228,25.468Z" style="fill:rgb(64,62,107);fill-rule:nonzero;"/>
        </g>
    </g>
</svg>
